# This file uses centimeters as units for non-parametric coordinates.

mtllib CookingBoard.mtl
g default
v -4.694661 3.883532 5.359007
v 4.694661 3.883532 5.359007
v 4.184716 4.319210 5.170524
v -4.184716 4.319210 5.170524
v -4.694661 3.883531 -7.821240
v -4.184716 4.319210 -7.690849
v -4.184716 3.508565 5.170524
v 4.184716 3.508565 5.170524
v 4.694661 3.883531 -7.821240
v 4.184716 4.319210 -7.690849
v 2.409776 4.319210 -6.526411
v 2.297851 4.319210 -6.413158
v 1.973030 4.319210 -6.310991
v 1.467109 4.319210 -6.229911
v 0.829611 4.319210 -6.177855
v 0.122940 4.319210 -6.159917
v -0.583731 4.319210 -6.177855
v -1.221229 4.319210 -6.229911
v -1.727150 4.319210 -6.310991
v -2.051971 4.319210 -6.413158
v -2.163897 4.319210 -6.526411
v -2.051971 4.319210 -6.639664
v -1.727150 4.319210 -6.741831
v -1.221229 4.319210 -6.822911
v -0.583732 4.319210 -6.874968
v 0.122940 4.319210 -6.892905
v 0.829612 4.319210 -6.874968
v 1.467110 4.319210 -6.822911
v 1.973031 4.319210 -6.741831
v 2.297852 4.319210 -6.639664
v -4.184716 3.508565 -7.690849
v 2.297851 3.508565 -6.413158
v 2.409776 3.508565 -6.526411
v 2.297852 3.508565 -6.639664
v 1.973031 3.508565 -6.741831
v 1.467110 3.508565 -6.822911
v 0.829612 3.508565 -6.874968
v 0.122940 3.508565 -6.892905
v -0.583732 3.508565 -6.874968
v -1.221229 3.508565 -6.822911
v -1.727150 3.508565 -6.741831
v -2.051971 3.508565 -6.639664
v -2.163897 3.508565 -6.526411
v 4.184716 3.508565 -7.690849
v -2.051971 3.508565 -6.413158
v -1.727150 3.508565 -6.310991
v -1.221229 3.508565 -6.229911
v -0.583731 3.508565 -6.177855
v 0.122940 3.508565 -6.159917
v 0.829611 3.508565 -6.177855
v 1.467109 3.508565 -6.229911
v 1.973030 3.508565 -6.310991
vt 0.000000 0.000000
vt 1.000000 0.000000
vt 0.945689 0.014300
vt 0.054311 0.014300
vt 0.000000 1.000000
vt 0.054311 0.990107
vt 0.054311 0.014300
vt 0.945689 0.014300
vt 1.000000 1.000000
vt 0.945689 0.990107
vt 0.756651 0.901760
vt 0.744730 0.893167
vt 0.269536 0.901760
vt 0.281457 0.893167
vt 0.316052 0.885416
vt 0.369934 0.879264
vt 0.437830 0.875315
vt 0.513094 0.873954
vt 0.588357 0.875315
vt 0.656253 0.879264
vt 0.710135 0.885416
vt 0.744730 0.910353
vt 0.281457 0.910353
vt 0.710136 0.918104
vt 0.316052 0.918104
vt 0.369934 0.924256
vt 0.437830 0.928205
vt 0.513094 0.929566
vt 0.588357 0.928205
vt 0.656253 0.924256
vt 0.054311 0.990107
vt 0.744730 0.893167
vt 0.756651 0.901760
vt 0.945689 0.990107
vt 0.744730 0.910353
vt 0.269536 0.901760
vt 0.281457 0.910353
vt 0.710136 0.918104
vt 0.316052 0.918104
vt 0.369934 0.924256
vt 0.437830 0.928205
vt 0.513094 0.929566
vt 0.588357 0.928205
vt 0.656253 0.924256
vt 0.281457 0.893167
vt 0.710135 0.885416
vt 0.656253 0.879264
vt 0.588357 0.875315
vt 0.513094 0.873954
vt 0.437830 0.875315
vt 0.369934 0.879264
vt 0.316052 0.885416
vn 0.000000 0.019665 0.999807
vn 0.000000 0.019665 0.999807
vn 0.000000 0.397056 0.917794
vn 0.000000 0.397056 0.917794
vn -0.999987 0.005105 0.000000
vn -0.999972 0.007543 0.000000
vn -0.649573 0.760299 0.000000
vn -0.649573 0.760299 0.000000
vn 0.000000 -0.449119 0.893472
vn 0.000000 -0.449119 0.893472
vn 0.999972 0.007543 0.000000
vn 0.999987 0.005105 0.000000
vn 0.649573 0.760299 0.000000
vn 0.649573 0.760299 0.000000
vn 0.000000 1.000000 -0.000000
vn 0.000000 1.000000 0.000000
vn 0.000000 1.000000 0.000000
vn 0.000000 1.000000 -0.000000
vn 0.000000 1.000000 0.000000
vn 0.000000 1.000000 0.000000
vn 0.000000 1.000000 0.000000
vn 0.000000 1.000000 0.000000
vn 0.000000 1.000000 -0.000001
vn 0.000000 1.000000 -0.000000
vn 0.000000 1.000000 0.000000
vn 0.000000 1.000000 0.000000
vn 0.000000 1.000000 0.000000
vn 0.000000 1.000000 0.000000
vn 0.000000 1.000000 -0.000000
vn 0.000000 1.000000 -0.000003
vn 0.000000 1.000000 0.000000
vn 0.000000 1.000000 -0.000001
vn 0.000000 1.000000 0.000000
vn 0.000000 1.000000 -0.000013
vn 0.000000 1.000000 -0.000013
vn 0.000000 1.000000 0.000001
vn 0.000000 1.000000 0.000005
vn 0.000000 1.000000 0.000000
vn 0.000000 0.286716 -0.958016
vn 0.000000 0.286716 -0.958016
vn 0.000000 0.015401 -0.999882
vn 0.000000 0.015401 -0.999882
vn -0.592398 -0.805646 0.000000
vn -0.592398 -0.805646 0.000000
vn 0.000000 -1.000000 -0.000000
vn 0.000000 -1.000000 0.000000
vn 0.000000 -1.000000 0.000000
vn 0.000000 -1.000000 0.000001
vn 0.000000 -1.000000 -0.000000
vn 0.000000 -1.000000 0.000000
vn 0.000000 -1.000000 -0.000000
vn 0.000000 -1.000000 -0.000001
vn 0.000000 -1.000000 0.000000
vn 0.000000 -1.000000 -0.000223
vn 0.000000 -1.000000 -0.000002
vn 0.000000 -1.000000 0.000000
vn 0.000000 -1.000000 0.000000
vn 0.000000 -1.000000 -0.000000
vn 0.000000 -1.000000 -0.000000
vn 0.000000 -1.000000 -0.000000
vn 0.000000 -1.000000 0.000000
vn 0.000000 -1.000000 0.000000
vn 0.000000 -1.000000 -0.000000
vn 0.000000 -1.000000 -0.000000
vn 0.000000 -1.000000 0.000000
vn 0.000000 -1.000000 0.000000
vn 0.000000 -1.000000 -0.000000
vn 0.000000 -1.000000 0.000000
vn 0.592398 -0.805646 0.000000
vn 0.592398 -0.805646 0.000000
vn 0.000000 -0.328448 -0.944522
vn 0.000000 -0.328448 -0.944522
vn -0.215405 0.000000 0.976525
vn -0.442355 0.000000 0.896840
vn -0.442355 0.000000 0.896840
vn -0.215405 0.000000 0.976525
vn -0.115656 0.000000 0.993289
vn -0.115656 0.000000 0.993289
vn -0.711264 0.000000 0.702925
vn -0.711264 0.000000 0.702925
vn -0.052002 0.000000 0.998647
vn -0.052002 0.000000 0.998647
vn -0.711262 0.000000 -0.702927
vn -0.442356 0.000000 -0.896840
vn -0.442356 0.000000 -0.896840
vn -0.711262 0.000000 -0.702927
vn 0.000000 0.000000 1.000000
vn 0.000000 0.000000 1.000000
vn -0.215404 0.000000 -0.976525
vn -0.215404 0.000000 -0.976525
vn 0.052002 0.000000 0.998647
vn 0.052002 0.000000 0.998647
vn -0.115655 0.000000 -0.993289
vn -0.115655 0.000000 -0.993289
vn 0.115656 0.000000 0.993289
vn 0.115656 0.000000 0.993289
vn -0.052002 0.000000 -0.998647
vn -0.052002 0.000000 -0.998647
vn 0.215405 0.000000 0.976525
vn 0.215405 0.000000 0.976525
vn 0.000000 0.000000 -1.000000
vn 0.000000 0.000000 -1.000000
vn 0.442354 0.000000 0.896840
vn 0.442354 0.000000 0.896840
vn 0.052002 0.000000 -0.998647
vn 0.052002 0.000000 -0.998647
vn 0.711260 0.000000 0.702929
vn 0.711260 0.000000 0.702929
vn 0.115655 0.000000 -0.993289
vn 0.115655 0.000000 -0.993289
vn 0.442355 0.000000 -0.896840
vn 0.711262 0.000000 -0.702927
vn 0.711262 0.000000 -0.702927
vn 0.442355 0.000000 -0.896840
vn 0.215404 0.000000 -0.976525
vn 0.215404 0.000000 -0.976525
s 1
g pCube2
usemtl initialShadingGroup
f 1/1/1 2/2/2 3/3/3 4/4/4
s 2
f 5/5/5 1/1/6 4/4/7 6/6/8
s 1
f 7/7/9 8/8/10 2/2/2 1/1/1
s 3
f 2/2/11 9/9/12 10/10/13 3/3/14
s 4
f 10/10/15 11/11/16 3/3/17
f 11/11/16 12/12/18 3/3/17
f 6/6/19 4/4/20 21/13/21
f 21/13/21 4/4/20 20/14/22
f 4/4/20 3/3/17 20/14/22
f 20/14/22 3/3/17 19/15/23
f 19/15/23 3/3/17 18/16/24
f 18/16/24 3/3/17 17/17/25
f 17/17/25 3/3/17 16/18/26
f 16/18/26 3/3/17 15/19/27
f 15/19/27 3/3/17 14/20/28
f 12/12/18 13/21/29 3/3/17
f 3/3/17 13/21/29 14/20/28
f 11/11/16 10/10/15 30/22/30
f 21/13/21 22/23/31 6/6/19
f 30/22/30 10/10/15 29/24/32
f 22/23/31 23/25/33 6/6/19
f 6/6/19 23/25/33 10/10/15
f 23/25/33 24/26/34 10/10/15
f 24/26/34 25/27/35 10/10/15
f 25/27/35 26/28/36 10/10/15
f 26/28/36 27/29/37 10/10/15
f 27/29/37 28/30/38 10/10/15
f 10/10/15 28/30/38 29/24/32
s 6
f 6/6/39 10/10/40 9/9/41 5/5/42
s 2
f 31/31/43 7/7/44 1/1/6 5/5/5
s 7
f 32/32/45 33/33/46 44/34/47
f 33/33/46 34/35/48 44/34/47
f 43/36/49 31/31/50 42/37/51
f 34/35/48 35/38/52 44/34/47
f 42/37/51 31/31/50 41/39/53
f 31/31/50 44/34/47 41/39/53
f 41/39/53 44/34/47 40/40/54
f 40/40/54 44/34/47 39/41/55
f 39/41/55 44/34/47 38/42/56
f 38/42/56 44/34/47 37/43/57
f 37/43/57 44/34/47 36/44/58
f 35/38/52 36/44/58 44/34/47
f 44/34/47 8/8/59 32/32/45
f 31/31/50 43/36/49 7/7/60
f 43/36/49 45/45/61 7/7/60
f 8/8/59 7/7/60 32/32/45
f 32/32/45 7/7/60 52/46/62
f 52/46/62 7/7/60 51/47/63
f 51/47/63 7/7/60 50/48/64
f 50/48/64 7/7/60 49/49/65
f 49/49/65 7/7/60 48/50/66
f 48/50/66 7/7/60 47/51/67
f 45/45/61 46/52/68 7/7/60
f 46/52/68 47/51/67 7/7/60
s 3
f 8/8/69 44/34/70 9/9/12 2/2/11
s 6
f 5/5/42 9/9/41 44/34/71 31/31/72
s 9
f 35/38/73 34/35/74 30/22/75 29/24/76
f 36/44/77 35/38/73 29/24/76 28/30/78
f 34/35/74 33/33/79 11/11/80 30/22/75
f 37/43/81 36/44/77 28/30/78 27/29/82
s 10
f 33/33/83 32/32/84 12/12/85 11/11/86
s 9
f 38/42/87 37/43/81 27/29/82 26/28/88
s 10
f 32/32/84 52/46/89 13/21/90 12/12/85
s 9
f 39/41/91 38/42/87 26/28/88 25/27/92
s 10
f 52/46/89 51/47/93 14/20/94 13/21/90
s 9
f 40/40/95 39/41/91 25/27/92 24/26/96
s 10
f 51/47/93 50/48/97 15/19/98 14/20/94
s 9
f 41/39/99 40/40/95 24/26/96 23/25/100
s 10
f 50/48/97 49/49/101 16/18/102 15/19/98
s 9
f 42/37/103 41/39/99 23/25/100 22/23/104
s 10
f 49/49/101 48/50/105 17/17/106 16/18/102
s 9
f 43/36/107 42/37/103 22/23/104 21/13/108
s 10
f 48/50/105 47/51/109 18/16/110 17/17/106
f 45/45/111 43/36/112 21/13/113 20/14/114
f 47/51/109 46/52/115 19/15/116 18/16/110
f 46/52/115 45/45/111 20/14/114 19/15/116
