# This file uses centimeters as units for non-parametric coordinates.

mtllib Door Right.mtl
g default
v -5.789947 17.185707 2.880177
v -5.550827 17.185707 2.880177
v -5.789947 26.466465 2.880177
v -5.550827 26.466465 2.880177
v -5.789947 26.466465 -1.650540
v -5.550827 26.466465 -1.650540
v -5.789947 17.185707 -1.650540
v -5.550827 17.185707 -1.650540
v -5.666394 19.929676 2.341210
v -5.149319 20.718626 2.338725
v -4.990927 21.956398 2.342133
v -5.153466 23.063822 2.349839
v -5.655390 23.522726 2.358238
v -5.648345 19.709446 2.516466
v -5.080415 20.597412 2.513668
v -4.902144 21.990526 2.517504
v -5.085083 23.236938 2.526177
v -5.638138 23.753435 2.535630
v -5.613194 19.216255 2.557213
v -4.930994 20.326708 2.553715
v -4.708056 22.068878 2.558511
v -4.936831 23.627588 2.569357
v -5.604780 24.273497 2.581179
v -5.587411 18.821487 2.432768
v -4.813572 20.110359 2.428708
v -4.554814 22.132452 2.434275
v -4.820348 23.941605 2.446864
v -5.580433 24.691296 2.460585
v -5.590410 18.822411 2.236841
v -4.816571 20.111284 2.232781
v -4.557814 22.133375 2.238348
v -4.823347 23.942528 2.250937
v -5.583433 24.692219 2.264658
v -5.619934 19.218328 2.116969
v -4.937733 20.328781 2.113471
v -4.714795 22.070953 2.118267
v -4.943571 23.629662 2.129114
v -5.611519 24.275572 2.140935
v -5.653749 19.711109 2.163418
v -5.085819 20.599075 2.160620
v -4.907548 21.992189 2.164456
v -5.090487 23.238602 2.173129
v -5.643543 23.755098 2.182582
vt 0.602348 0.000000
vt 0.602348 0.000000
vt 0.602348 1.000000
vt 0.602348 1.000000
vt 1.000000 1.000000
vt 1.000000 1.000000
vt 1.000000 0.000000
vt 1.000000 0.000000
vt 0.521053 0.042481
vt 0.390790 0.042481
vt 0.260527 0.042481
vt 0.130263 0.042481
vt 0.000000 0.042481
vt 0.521053 0.173201
vt 0.130263 0.957519
vt 0.000000 0.957519
vt 0.000000 0.826799
vt 0.130263 0.826799
vt 0.260527 0.957519
vt 0.260527 0.826799
vt 0.390790 0.957519
vt 0.390790 0.826799
vt 0.521053 0.957519
vt 0.521053 0.826799
vt 0.000000 0.696080
vt 0.130263 0.696080
vt 0.260527 0.696080
vt 0.390790 0.696080
vt 0.521053 0.696080
vt 0.000000 0.565360
vt 0.130263 0.565360
vt 0.260527 0.565360
vt 0.390790 0.565360
vt 0.521053 0.565360
vt 0.000000 0.434640
vt 0.130263 0.434640
vt 0.260527 0.434640
vt 0.390790 0.434640
vt 0.521053 0.434640
vt 0.000000 0.303920
vt 0.130263 0.303920
vt 0.260527 0.303920
vt 0.390790 0.303920
vt 0.521053 0.303920
vt 0.000000 0.173201
vt 0.130263 0.173201
vt 0.260527 0.173201
vt 0.390790 0.173201
vn 0.000000 0.000000 1.000000
vn 0.000000 0.000000 1.000000
vn 0.000000 0.000000 1.000000
vn 0.000000 0.000000 1.000000
vn 0.000000 1.000000 0.000000
vn 0.000000 1.000000 0.000000
vn 0.000000 1.000000 0.000000
vn 0.000000 1.000000 0.000000
vn 0.000000 0.000000 -1.000000
vn 0.000000 0.000000 -1.000000
vn 0.000000 0.000000 -1.000000
vn 0.000000 0.000000 -1.000000
vn 0.000000 -1.000000 0.000000
vn 0.000000 -1.000000 0.000000
vn 0.000000 -1.000000 0.000000
vn 0.000000 -1.000000 0.000000
vn 1.000000 0.000000 0.000000
vn 1.000000 0.000000 0.000000
vn 1.000000 0.000000 0.000000
vn 1.000000 0.000000 0.000000
vn -1.000000 0.000000 0.000000
vn -1.000000 0.000000 0.000000
vn -1.000000 0.000000 0.000000
vn -1.000000 0.000000 0.000000
vn -0.674215 0.438106 0.594557
vn -0.674215 0.438106 0.594557
vn -0.674215 0.438106 0.594557
vn -0.674215 0.438106 0.594557
vn -0.895148 0.113361 0.431113
vn -0.895148 0.113361 0.431113
vn -0.895148 0.113361 0.431113
vn -0.895148 0.113361 0.431113
vn -0.873886 -0.131519 0.468003
vn -0.873886 -0.131519 0.468003
vn -0.873886 -0.131519 0.468003
vn -0.873886 -0.131519 0.468003
vn -0.471120 -0.522562 0.710616
vn -0.471120 -0.522562 0.710616
vn -0.471120 -0.522562 0.710616
vn -0.471120 -0.522562 0.710616
vn -0.117168 0.076415 0.990168
vn -0.117168 0.076415 0.990168
vn -0.117168 0.076415 0.990168
vn -0.117168 0.076415 0.990168
vn -0.216302 0.024992 0.976007
vn -0.216302 0.024992 0.976007
vn -0.216302 0.024992 0.976007
vn -0.216302 0.024992 0.976007
vn -0.192985 -0.035148 0.980572
vn -0.192985 -0.035148 0.980572
vn -0.192985 -0.035148 0.980572
vn -0.192985 -0.035148 0.980572
vn -0.062958 -0.084332 0.994447
vn -0.062958 -0.084332 0.994447
vn -0.062958 -0.084332 0.994447
vn -0.062958 -0.084332 0.994447
vn 0.424764 -0.255033 0.868639
vn 0.424764 -0.255033 0.868639
vn 0.424764 -0.255033 0.868639
vn 0.424764 -0.255033 0.868639
vn 0.648534 -0.085072 0.756417
vn 0.648534 -0.085073 0.756417
vn 0.648534 -0.085072 0.756417
vn 0.648534 -0.085072 0.756417
vn 0.606426 0.083504 0.790743
vn 0.606426 0.083504 0.790743
vn 0.606426 0.083504 0.790743
vn 0.606426 0.083504 0.790743
vn 0.267710 0.256936 0.928609
vn 0.267710 0.256936 0.928609
vn 0.267710 0.256936 0.928609
vn 0.267710 0.256936 0.928609
vn 0.857217 -0.514721 -0.015548
vn 0.857217 -0.514721 -0.015548
vn 0.857217 -0.514721 -0.015548
vn 0.857216 -0.514721 -0.015548
vn 0.991794 -0.126872 -0.015781
vn 0.991794 -0.126872 -0.015781
vn 0.991794 -0.126872 -0.015781
vn 0.991794 -0.126872 -0.015781
vn 0.989282 0.145300 -0.014460
vn 0.989282 0.145300 -0.014460
vn 0.989282 0.145300 -0.014460
vn 0.989282 0.145300 -0.014460
vn 0.702135 0.712005 -0.007401
vn 0.702135 0.712005 -0.007401
vn 0.702135 0.712005 -0.007401
vn 0.702135 0.712005 -0.007401
vn 0.400478 -0.245812 -0.882720
vn 0.400478 -0.245812 -0.882720
vn 0.400478 -0.245812 -0.882720
vn 0.400478 -0.245812 -0.882720
vn 0.625067 -0.077848 -0.776680
vn 0.625067 -0.077848 -0.776680
vn 0.625067 -0.077848 -0.776680
vn 0.625067 -0.077848 -0.776680
vn 0.581952 0.091038 -0.808111
vn 0.581952 0.091038 -0.808111
vn 0.581952 0.091038 -0.808111
vn 0.581952 0.091038 -0.808111
vn 0.242208 0.264918 -0.933356
vn 0.242208 0.264918 -0.933356
vn 0.242208 0.264918 -0.933356
vn 0.242208 0.264918 -0.933356
vn -0.143561 0.086700 -0.985836
vn -0.143561 0.086700 -0.985836
vn -0.143561 0.086700 -0.985836
vn -0.143561 0.086700 -0.985836
vn -0.246069 0.034155 -0.968650
vn -0.246069 0.034155 -0.968650
vn -0.246069 0.034155 -0.968650
vn -0.246069 0.034155 -0.968650
vn -0.222914 -0.025937 -0.974493
vn -0.222914 -0.025937 -0.974493
vn -0.222914 -0.025937 -0.974493
vn -0.222914 -0.025937 -0.974493
vn -0.089437 -0.075770 -0.993106
vn -0.089437 -0.075770 -0.993106
vn -0.089437 -0.075770 -0.993106
vn -0.089437 -0.075770 -0.993106
vn -0.690420 0.444921 -0.570408
vn -0.690420 0.444921 -0.570408
vn -0.690420 0.444921 -0.570408
vn -0.690420 0.444921 -0.570408
vn -0.907908 0.117288 -0.402426
vn -0.907908 0.117288 -0.402426
vn -0.907908 0.117289 -0.402426
vn -0.907908 0.117289 -0.402426
vn -0.887819 -0.127230 -0.442256
vn -0.887819 -0.127230 -0.442256
vn -0.887819 -0.127230 -0.442256
vn -0.887819 -0.127230 -0.442256
vn -0.490061 -0.517200 -0.701672
vn -0.490061 -0.517200 -0.701672
vn -0.490061 -0.517200 -0.701672
vn -0.490061 -0.517200 -0.701672
s off
g pCube16
usemtl initialShadingGroup
f 1/1/1 2/2/2 4/3/3 3/4/4
f 3/4/5 4/3/6 6/5/7 5/6/8
f 5/6/9 6/5/10 8/7/11 7/8/12
f 7/8/13 8/7/14 2/2/15 1/1/16
f 2/2/17 8/7/18 6/5/19 4/3/20
f 7/8/21 1/1/22 3/4/23 5/6/24
f 10/15/25 9/16/26 14/17/27 15/18/28
f 11/19/29 10/15/30 15/18/31 16/20/32
f 12/21/33 11/19/34 16/20/35 17/22/36
f 13/23/37 12/21/38 17/22/39 18/24/40
f 15/18/41 14/17/42 19/25/43 20/26/44
f 16/20/45 15/18/46 20/26/47 21/27/48
f 17/22/49 16/20/50 21/27/51 22/28/52
f 18/24/53 17/22/54 22/28/55 23/29/56
f 20/26/57 19/25/58 24/30/59 25/31/60
f 21/27/61 20/26/62 25/31/63 26/32/64
f 22/28/65 21/27/66 26/32/67 27/33/68
f 23/29/69 22/28/70 27/33/71 28/34/72
f 25/31/73 24/30/74 29/35/75 30/36/76
f 26/32/77 25/31/78 30/36/79 31/37/80
f 27/33/81 26/32/82 31/37/83 32/38/84
f 28/34/85 27/33/86 32/38/87 33/39/88
f 30/36/89 29/35/90 34/40/91 35/41/92
f 31/37/93 30/36/94 35/41/95 36/42/96
f 32/38/97 31/37/98 36/42/99 37/43/100
f 33/39/101 32/38/102 37/43/103 38/44/104
f 35/41/105 34/40/106 39/45/107 40/46/108
f 36/42/109 35/41/110 40/46/111 41/47/112
f 37/43/113 36/42/114 41/47/115 42/48/116
f 38/44/117 37/43/118 42/48/119 43/14/120
f 40/46/121 39/45/122 9/13/123 10/12/124
f 41/47/125 40/46/126 10/12/127 11/11/128
f 42/48/129 41/47/130 11/11/131 12/10/132
f 43/14/133 42/48/134 12/10/135 13/9/136
