# This file uses centimeters as units for non-parametric coordinates.

mtllib Door Left.mtl
g default
v -5.612840 17.185707 7.530443
v -5.373721 17.185707 7.530443
v -5.612840 26.466465 7.530443
v -5.373721 26.466465 7.530443
v -5.612840 26.466465 2.999726
v -5.373721 26.466465 2.999726
v -5.612840 17.185707 2.999726
v -5.373721 17.185707 2.999726
v -5.489288 19.929676 3.573628
v -4.972213 20.718626 3.571142
v -4.813821 21.956398 3.574550
v -4.976360 23.063822 3.582256
v -5.478284 23.522726 3.590655
v -5.471239 19.709446 3.748883
v -4.903309 20.597412 3.746086
v -4.725038 21.990526 3.749921
v -4.907977 23.236938 3.758594
v -5.461032 23.753435 3.768047
v -5.436088 19.216255 3.789630
v -4.753887 20.326708 3.786132
v -4.530950 22.068878 3.790928
v -4.759725 23.627588 3.801775
v -5.427674 24.273497 3.813596
v -5.410305 18.821487 3.665185
v -4.636466 20.110359 3.661125
v -4.377708 22.132452 3.666692
v -4.643242 23.941605 3.679281
v -5.403327 24.691296 3.693002
v -5.413304 18.822411 3.469259
v -4.639465 20.111284 3.465199
v -4.380707 22.133375 3.470765
v -4.646241 23.942528 3.483355
v -5.406326 24.692219 3.497076
v -5.442827 19.218328 3.349387
v -4.760627 20.328781 3.345888
v -4.537689 22.070953 3.350685
v -4.766464 23.629662 3.361531
v -5.434413 24.275572 3.373353
v -5.476643 19.711109 3.395835
v -4.908713 20.599075 3.393038
v -4.730442 21.992189 3.396873
v -4.913381 23.238602 3.405546
v -5.466437 23.755098 3.414999
vt -0.000315 0.000000
vt -0.000315 0.000000
vt -0.000315 1.000000
vt -0.000315 1.000000
vt 0.528830 1.000000
vt 0.528830 1.000000
vt 0.528830 0.000000
vt 0.528830 0.000000
vt 0.763365 0.323152
vt 0.761901 0.188765
vt 0.658627 0.151252
vt 0.660276 0.302505
vt 0.761357 0.533990
vt 0.658015 0.539803
vt 0.756816 0.722625
vt 0.652905 0.752113
vt 0.751867 0.800793
vt 0.647334 0.840091
vt 0.634616 0.067243
vt 0.636677 0.256394
vt 0.633851 0.553149
vt 0.627460 0.818655
vt 0.620494 0.928676
vt 0.707948 0.000000
vt 0.710341 0.219542
vt 0.707060 0.563978
vt 0.699642 0.872143
vt 0.691556 0.999843
vt 0.823403 0.000157
vt 0.825795 0.219700
vt 0.822515 0.564136
vt 0.815096 0.872300
vt 0.807011 1.000000
vt 0.894041 0.067597
vt 0.896102 0.256747
vt 0.893275 0.553503
vt 0.886884 0.819008
vt 0.879918 0.929030
vt 0.866670 0.151535
vt 0.868318 0.302788
vt 0.866058 0.540087
vt 0.860947 0.752396
vt 0.855377 0.840374
vn 0.000000 0.000000 1.000000
vn 0.000000 0.000000 1.000000
vn 0.000000 0.000000 1.000000
vn 0.000000 0.000000 1.000000
vn 0.000000 1.000000 0.000000
vn 0.000000 1.000000 0.000000
vn 0.000000 1.000000 0.000000
vn 0.000000 1.000000 0.000000
vn 0.000000 0.000000 -1.000000
vn 0.000000 0.000000 -1.000000
vn 0.000000 0.000000 -1.000000
vn 0.000000 0.000000 -1.000000
vn 0.000000 -1.000000 0.000000
vn 0.000000 -1.000000 0.000000
vn 0.000000 -1.000000 0.000000
vn 0.000000 -1.000000 0.000000
vn 1.000000 0.000000 0.000000
vn 1.000000 0.000000 0.000000
vn 1.000000 0.000000 0.000000
vn 1.000000 0.000000 0.000000
vn -1.000000 0.000000 0.000000
vn -1.000000 0.000000 0.000000
vn -1.000000 0.000000 0.000000
vn -1.000000 0.000000 0.000000
vn -0.674215 0.438106 0.594557
vn -0.674215 0.438106 0.594557
vn -0.674215 0.438106 0.594557
vn -0.674215 0.438106 0.594557
vn -0.895148 0.113361 0.431113
vn -0.895148 0.113361 0.431113
vn -0.895148 0.113361 0.431113
vn -0.895148 0.113361 0.431113
vn -0.873885 -0.131519 0.468003
vn -0.873885 -0.131519 0.468003
vn -0.873886 -0.131519 0.468003
vn -0.873885 -0.131519 0.468003
vn -0.471120 -0.522562 0.710616
vn -0.471120 -0.522562 0.710616
vn -0.471120 -0.522562 0.710616
vn -0.471120 -0.522562 0.710616
vn -0.117168 0.076415 0.990168
vn -0.117168 0.076415 0.990168
vn -0.117168 0.076415 0.990168
vn -0.117168 0.076415 0.990168
vn -0.216302 0.024992 0.976007
vn -0.216302 0.024992 0.976007
vn -0.216302 0.024992 0.976007
vn -0.216302 0.024992 0.976007
vn -0.192987 -0.035148 0.980572
vn -0.192987 -0.035148 0.980572
vn -0.192987 -0.035148 0.980572
vn -0.192987 -0.035148 0.980572
vn -0.062958 -0.084332 0.994447
vn -0.062958 -0.084332 0.994447
vn -0.062958 -0.084332 0.994447
vn -0.062958 -0.084332 0.994447
vn 0.424765 -0.255033 0.868639
vn 0.424765 -0.255033 0.868639
vn 0.424765 -0.255033 0.868639
vn 0.424765 -0.255033 0.868639
vn 0.648535 -0.085072 0.756416
vn 0.648535 -0.085072 0.756416
vn 0.648535 -0.085072 0.756416
vn 0.648535 -0.085072 0.756416
vn 0.606426 0.083504 0.790743
vn 0.606426 0.083504 0.790743
vn 0.606426 0.083504 0.790743
vn 0.606426 0.083504 0.790743
vn 0.267710 0.256936 0.928609
vn 0.267710 0.256936 0.928609
vn 0.267710 0.256936 0.928609
vn 0.267710 0.256936 0.928609
vn 0.857217 -0.514721 -0.015548
vn 0.857217 -0.514721 -0.015548
vn 0.857217 -0.514721 -0.015548
vn 0.857217 -0.514721 -0.015548
vn 0.991794 -0.126872 -0.015781
vn 0.991794 -0.126872 -0.015781
vn 0.991794 -0.126872 -0.015781
vn 0.991794 -0.126872 -0.015781
vn 0.989282 0.145300 -0.014460
vn 0.989282 0.145300 -0.014460
vn 0.989282 0.145300 -0.014460
vn 0.989282 0.145300 -0.014460
vn 0.702135 0.712005 -0.007401
vn 0.702135 0.712005 -0.007401
vn 0.702135 0.712005 -0.007401
vn 0.702135 0.712005 -0.007401
vn 0.400476 -0.245812 -0.882720
vn 0.400476 -0.245812 -0.882720
vn 0.400476 -0.245812 -0.882720
vn 0.400476 -0.245812 -0.882720
vn 0.625066 -0.077848 -0.776680
vn 0.625066 -0.077848 -0.776681
vn 0.625066 -0.077848 -0.776681
vn 0.625066 -0.077848 -0.776680
vn 0.581951 0.091038 -0.808112
vn 0.581951 0.091038 -0.808112
vn 0.581951 0.091038 -0.808112
vn 0.581951 0.091038 -0.808112
vn 0.242207 0.264918 -0.933356
vn 0.242207 0.264918 -0.933356
vn 0.242207 0.264918 -0.933356
vn 0.242207 0.264918 -0.933356
vn -0.143560 0.086700 -0.985837
vn -0.143560 0.086700 -0.985837
vn -0.143560 0.086700 -0.985837
vn -0.143559 0.086700 -0.985837
vn -0.246068 0.034155 -0.968651
vn -0.246068 0.034155 -0.968651
vn -0.246068 0.034155 -0.968651
vn -0.246068 0.034155 -0.968651
vn -0.222914 -0.025937 -0.974493
vn -0.222914 -0.025937 -0.974493
vn -0.222914 -0.025937 -0.974493
vn -0.222914 -0.025937 -0.974493
vn -0.089436 -0.075770 -0.993106
vn -0.089436 -0.075770 -0.993106
vn -0.089436 -0.075770 -0.993106
vn -0.089436 -0.075770 -0.993106
vn -0.690420 0.444921 -0.570408
vn -0.690420 0.444921 -0.570408
vn -0.690420 0.444921 -0.570408
vn -0.690420 0.444921 -0.570408
vn -0.907908 0.117289 -0.402426
vn -0.907908 0.117289 -0.402426
vn -0.907908 0.117289 -0.402426
vn -0.907908 0.117289 -0.402426
vn -0.887819 -0.127230 -0.442256
vn -0.887819 -0.127230 -0.442256
vn -0.887819 -0.127230 -0.442256
vn -0.887819 -0.127230 -0.442256
vn -0.490060 -0.517200 -0.701673
vn -0.490061 -0.517201 -0.701673
vn -0.490060 -0.517201 -0.701673
vn -0.490060 -0.517200 -0.701673
s off
g pCube17
usemtl initialShadingGroup
f 1/1/1 2/2/2 4/3/3 3/4/4
f 3/4/5 4/3/6 6/5/7 5/6/8
f 5/6/9 6/5/10 8/7/11 7/8/12
f 7/8/13 8/7/14 2/2/15 1/1/16
f 2/2/17 8/7/18 6/5/19 4/3/20
f 7/8/21 1/1/22 3/4/23 5/6/24
f 10/9/25 9/10/26 14/11/27 15/12/28
f 11/13/29 10/9/30 15/12/31 16/14/32
f 12/15/33 11/13/34 16/14/35 17/16/36
f 13/17/37 12/15/38 17/16/39 18/18/40
f 15/12/41 14/11/42 19/19/43 20/20/44
f 16/14/45 15/12/46 20/20/47 21/21/48
f 17/16/49 16/14/50 21/21/51 22/22/52
f 18/18/53 17/16/54 22/22/55 23/23/56
f 20/20/57 19/19/58 24/24/59 25/25/60
f 21/21/61 20/20/62 25/25/63 26/26/64
f 22/22/65 21/21/66 26/26/67 27/27/68
f 23/23/69 22/22/70 27/27/71 28/28/72
f 25/25/73 24/24/74 29/29/75 30/30/76
f 26/26/77 25/25/78 30/30/79 31/31/80
f 27/27/81 26/26/82 31/31/83 32/32/84
f 28/28/85 27/27/86 32/32/87 33/33/88
f 30/30/89 29/29/90 34/34/91 35/35/92
f 31/31/93 30/30/94 35/35/95 36/36/96
f 32/32/97 31/31/98 36/36/99 37/37/100
f 33/33/101 32/32/102 37/37/103 38/38/104
f 35/35/105 34/34/106 39/39/107 40/40/108
f 36/36/109 35/35/110 40/40/111 41/41/112
f 37/37/113 36/36/114 41/41/115 42/42/116
f 38/38/117 37/37/118 42/42/119 43/43/120
f 40/40/121 39/39/122 9/10/123 10/9/124
f 41/41/125 40/40/126 10/9/127 11/13/128
f 42/42/129 41/41/130 11/13/131 12/15/132
f 43/43/133 42/42/134 12/15/135 13/17/136
