# This file uses centimeters as units for non-parametric coordinates.

mtllib Egg.mtl
g default
v 0.412359 -0.178354 -0.187828
v 0.302034 -0.178354 -0.343179
v 0.139485 -0.178354 -0.439191
v -0.047182 -0.178354 -0.459263
v -0.225691 -0.178354 -0.399924
v -0.365176 -0.178354 -0.271435
v -0.441519 -0.178354 -0.096012
v -0.441519 -0.178354 0.096012
v -0.365176 -0.178354 0.271435
v -0.225691 -0.178354 0.399924
v -0.047182 -0.178354 0.459263
v 0.139485 -0.178354 0.439191
v 0.302034 -0.178354 0.343179
v 0.412359 -0.178354 0.187828
v 0.451383 -0.178354 0.000000
v 0.800753 0.029857 -0.364740
v 0.586515 0.029857 -0.666413
v 0.270864 0.029857 -0.852857
v -0.091623 0.029857 -0.891835
v -0.438266 0.029857 -0.776606
v -0.709130 0.029857 -0.527095
v -0.857379 0.029857 -0.186444
v -0.857379 0.029857 0.186444
v -0.709130 0.029857 0.527095
v -0.438267 0.029857 0.776606
v -0.091623 0.029857 0.891835
v 0.270864 0.029857 0.852857
v 0.586515 0.029857 0.666413
v 0.800753 0.029857 0.364740
v 0.876533 0.029857 0.000000
v 1.142610 0.363404 -0.520454
v 0.836910 0.363404 -0.950918
v 0.386501 0.363404 -1.216959
v -0.130738 0.363404 -1.272577
v -0.625371 0.363404 -1.108154
v -1.011872 0.363404 -0.752122
v -1.223411 0.363404 -0.266041
v -1.223411 0.363404 0.266041
v -1.011872 0.363404 0.752122
v -0.625371 0.363404 1.108154
v -0.130738 0.363404 1.272577
v 0.386501 0.363404 1.216959
v 0.836910 0.363404 0.950918
v 1.142610 0.363404 0.520455
v 1.250743 0.363404 0.000000
v 1.418063 0.802903 -0.645922
v 1.038667 0.802903 -1.180158
v 0.479676 0.802903 -1.510335
v -0.162255 0.802903 -1.579361
v -0.776131 0.802903 -1.375301
v -1.255807 0.802903 -0.933439
v -1.518342 0.802903 -0.330176
v -1.518342 0.802903 0.330176
v -1.255807 0.802903 0.933438
v -0.776132 0.802903 1.375301
v -0.162256 0.802903 1.579361
v 0.479676 0.802903 1.510335
v 1.038667 0.802903 1.180159
v 1.418063 0.802903 0.645922
v 1.552263 0.802903 0.000000
v 1.611103 1.322811 -0.733851
v 1.180060 1.322811 -1.340813
v 0.544974 1.322811 -1.715936
v -0.184343 1.322811 -1.794358
v -0.881786 1.322811 -1.562520
v -1.426759 1.322811 -1.060507
v -1.725034 1.322811 -0.375123
v -1.725034 1.322811 0.375123
v -1.426760 1.322811 1.060507
v -0.881786 1.322811 1.562520
v -0.184344 1.322811 1.794359
v 0.544974 1.322811 1.715937
v 1.180060 1.322811 1.340813
v 1.611103 1.322811 0.733852
v 1.763572 1.322811 0.000000
v 1.710512 1.892913 -0.779131
v 1.252872 1.892913 -1.423544
v 0.578600 1.892913 -1.821813
v -0.195718 1.892913 -1.905074
v -0.936194 1.892913 -1.658931
v -1.514794 1.892913 -1.125943
v -1.831472 1.892913 -0.398269
v -1.831472 1.892913 0.398269
v -1.514794 1.892913 1.125943
v -0.936194 1.892913 1.658931
v -0.195718 1.892913 1.905074
v 0.578600 1.892913 1.821814
v 1.252872 1.892913 1.423545
v 1.710512 1.892913 0.779132
v 1.872388 1.892913 0.000000
v 1.710512 2.480077 -0.779131
v 1.252872 2.480077 -1.423544
v 0.578600 2.480077 -1.821813
v -0.195718 2.480077 -1.905074
v -0.936194 2.480077 -1.658931
v -1.514794 2.480077 -1.125943
v -1.831472 2.480077 -0.398269
v -1.831472 2.480077 0.398269
v -1.514794 2.480077 1.125943
v -0.936194 2.480077 1.658931
v -0.195718 2.480077 1.905074
v 0.578600 2.480077 1.821814
v 1.252872 2.480077 1.423545
v 1.710512 2.480077 0.779132
v 1.872388 2.480077 0.000000
v 1.611103 3.050179 -0.733851
v 1.180060 3.050179 -1.340813
v 0.544974 3.050179 -1.715936
v -0.184343 3.050179 -1.794358
v -0.881786 3.050179 -1.562520
v -1.426759 3.050179 -1.060507
v -1.725034 3.050179 -0.375123
v -1.725034 3.050179 0.375123
v -1.426760 3.050179 1.060507
v -0.881786 3.050179 1.562520
v -0.184344 3.050179 1.794359
v 0.544974 3.050179 1.715937
v 1.180060 3.050179 1.340813
v 1.611103 3.050179 0.733852
v 1.763572 3.050179 0.000000
v 1.418063 3.570086 -0.645922
v 1.038667 3.570086 -1.180158
v 0.479676 3.570086 -1.510335
v -0.162255 3.570086 -1.579361
v -0.776131 3.570086 -1.375301
v -1.255807 3.570086 -0.933439
v -1.518342 3.570086 -0.330176
v -1.518342 3.570086 0.330176
v -1.255807 3.570086 0.933438
v -0.776132 3.570086 1.375301
v -0.162256 3.570086 1.579361
v 0.479676 3.570086 1.510335
v 1.038667 3.570086 1.180159
v 1.418063 3.570086 0.645922
v 1.552263 3.570086 0.000000
v 1.142610 4.009585 -0.520454
v 0.836910 4.009585 -0.950918
v 0.386501 4.009585 -1.216959
v -0.130738 4.009585 -1.272577
v -0.625371 4.009585 -1.108154
v -1.011872 4.009585 -0.752122
v -1.223411 4.009585 -0.266041
v -1.223411 4.009585 0.266041
v -1.011872 4.009585 0.752122
v -0.625371 4.009585 1.108154
v -0.130738 4.009585 1.272577
v 0.386501 4.009585 1.216959
v 0.836910 4.009585 0.950918
v 1.142610 4.009585 0.520455
v 1.250743 4.009585 0.000000
v 0.800753 4.343132 -0.364740
v 0.586515 4.343132 -0.666413
v 0.270864 4.343132 -0.852857
v -0.091623 4.343132 -0.891835
v -0.438266 4.343132 -0.776606
v -0.709130 4.343132 -0.527095
v -0.857379 4.343132 -0.186444
v -0.857379 4.343132 0.186444
v -0.709130 4.343132 0.527095
v -0.438267 4.343132 0.776606
v -0.091623 4.343132 0.891835
v 0.270864 4.343132 0.852857
v 0.586515 4.343132 0.666413
v 0.800753 4.343132 0.364740
v 0.876533 4.343132 0.000000
v 0.412359 4.551344 -0.187828
v 0.302034 4.551344 -0.343179
v 0.139485 4.551344 -0.439191
v -0.047182 4.551344 -0.459263
v -0.225691 4.551344 -0.399924
v -0.365176 4.551344 -0.271435
v -0.441519 4.551344 -0.096012
v -0.441519 4.551344 0.096012
v -0.365176 4.551344 0.271435
v -0.225691 4.551344 0.399924
v -0.047182 4.551344 0.459263
v 0.139485 4.551344 0.439191
v 0.302034 4.551344 0.343179
v 0.412359 4.551344 0.187828
v 0.451383 4.551344 0.000000
v 0.000000 -0.249129 0.000000
v 0.000000 4.622118 0.000000
vt 0.000000 0.076923
vt 0.066667 0.076923
vt 0.133333 0.076923
vt 0.200000 0.076923
vt 0.266667 0.076923
vt 0.333333 0.076923
vt 0.400000 0.076923
vt 0.466667 0.076923
vt 0.533333 0.076923
vt 0.600000 0.076923
vt 0.666667 0.076923
vt 0.733333 0.076923
vt 0.800000 0.076923
vt 0.866667 0.076923
vt 0.933333 0.076923
vt 1.000000 0.076923
vt 0.000000 0.153846
vt 0.066667 0.153846
vt 0.133333 0.153846
vt 0.200000 0.153846
vt 0.266667 0.153846
vt 0.333333 0.153846
vt 0.400000 0.153846
vt 0.466667 0.153846
vt 0.533333 0.153846
vt 0.600000 0.153846
vt 0.666667 0.153846
vt 0.733333 0.153846
vt 0.800000 0.153846
vt 0.866667 0.153846
vt 0.933333 0.153846
vt 1.000000 0.153846
vt 0.000000 0.230769
vt 0.066667 0.230769
vt 0.133333 0.230769
vt 0.200000 0.230769
vt 0.266667 0.230769
vt 0.333333 0.230769
vt 0.400000 0.230769
vt 0.466667 0.230769
vt 0.533333 0.230769
vt 0.600000 0.230769
vt 0.666667 0.230769
vt 0.733333 0.230769
vt 0.800000 0.230769
vt 0.866667 0.230769
vt 0.933333 0.230769
vt 1.000000 0.230769
vt 0.000000 0.307692
vt 0.066667 0.307692
vt 0.133333 0.307692
vt 0.200000 0.307692
vt 0.266667 0.307692
vt 0.333333 0.307692
vt 0.400000 0.307692
vt 0.466667 0.307692
vt 0.533333 0.307692
vt 0.600000 0.307692
vt 0.666667 0.307692
vt 0.733333 0.307692
vt 0.800000 0.307692
vt 0.866667 0.307692
vt 0.933333 0.307692
vt 1.000000 0.307692
vt 0.000000 0.384615
vt 0.066667 0.384615
vt 0.133333 0.384615
vt 0.200000 0.384615
vt 0.266667 0.384615
vt 0.333333 0.384615
vt 0.400000 0.384615
vt 0.466667 0.384615
vt 0.533333 0.384615
vt 0.600000 0.384615
vt 0.666667 0.384615
vt 0.733333 0.384615
vt 0.800000 0.384615
vt 0.866667 0.384615
vt 0.933333 0.384615
vt 1.000000 0.384615
vt 0.000000 0.461538
vt 0.066667 0.461538
vt 0.133333 0.461538
vt 0.200000 0.461538
vt 0.266667 0.461538
vt 0.333333 0.461538
vt 0.400000 0.461538
vt 0.466667 0.461538
vt 0.533333 0.461538
vt 0.600000 0.461538
vt 0.666667 0.461538
vt 0.733333 0.461538
vt 0.800000 0.461538
vt 0.866667 0.461538
vt 0.933333 0.461538
vt 1.000000 0.461538
vt 0.000000 0.538462
vt 0.066667 0.538462
vt 0.133333 0.538462
vt 0.200000 0.538462
vt 0.266667 0.538462
vt 0.333333 0.538462
vt 0.400000 0.538462
vt 0.466667 0.538462
vt 0.533333 0.538462
vt 0.600000 0.538462
vt 0.666667 0.538462
vt 0.733333 0.538462
vt 0.800000 0.538462
vt 0.866667 0.538462
vt 0.933333 0.538462
vt 1.000000 0.538462
vt 0.000000 0.615385
vt 0.066667 0.615385
vt 0.133333 0.615385
vt 0.200000 0.615385
vt 0.266667 0.615385
vt 0.333333 0.615385
vt 0.400000 0.615385
vt 0.466667 0.615385
vt 0.533333 0.615385
vt 0.600000 0.615385
vt 0.666667 0.615385
vt 0.733333 0.615385
vt 0.800000 0.615385
vt 0.866667 0.615385
vt 0.933333 0.615385
vt 1.000000 0.615385
vt 0.000000 0.692308
vt 0.066667 0.692308
vt 0.133333 0.692308
vt 0.200000 0.692308
vt 0.266667 0.692308
vt 0.333333 0.692308
vt 0.400000 0.692308
vt 0.466667 0.692308
vt 0.533333 0.692308
vt 0.600000 0.692308
vt 0.666667 0.692308
vt 0.733333 0.692308
vt 0.800000 0.692308
vt 0.866667 0.692308
vt 0.933333 0.692308
vt 1.000000 0.692308
vt 0.000000 0.769231
vt 0.066667 0.769231
vt 0.133333 0.769231
vt 0.200000 0.769231
vt 0.266667 0.769231
vt 0.333333 0.769231
vt 0.400000 0.769231
vt 0.466667 0.769231
vt 0.533333 0.769231
vt 0.600000 0.769231
vt 0.666667 0.769231
vt 0.733333 0.769231
vt 0.800000 0.769231
vt 0.866667 0.769231
vt 0.933333 0.769231
vt 1.000000 0.769231
vt 0.000000 0.846154
vt 0.066667 0.846154
vt 0.133333 0.846154
vt 0.200000 0.846154
vt 0.266667 0.846154
vt 0.333333 0.846154
vt 0.400000 0.846154
vt 0.466667 0.846154
vt 0.533333 0.846154
vt 0.600000 0.846154
vt 0.666667 0.846154
vt 0.733333 0.846154
vt 0.800000 0.846154
vt 0.866667 0.846154
vt 0.933333 0.846154
vt 1.000000 0.846154
vt 0.000000 0.923077
vt 0.066667 0.923077
vt 0.133333 0.923077
vt 0.200000 0.923077
vt 0.266667 0.923077
vt 0.333333 0.923077
vt 0.400000 0.923077
vt 0.466667 0.923077
vt 0.533333 0.923077
vt 0.600000 0.923077
vt 0.666667 0.923077
vt 0.733333 0.923077
vt 0.800000 0.923077
vt 0.866667 0.923077
vt 0.933333 0.923077
vt 1.000000 0.923077
vt 0.033333 0.000000
vt 0.100000 0.000000
vt 0.166667 0.000000
vt 0.233333 0.000000
vt 0.300000 0.000000
vt 0.366667 0.000000
vt 0.433333 0.000000
vt 0.500000 0.000000
vt 0.566667 0.000000
vt 0.633333 0.000000
vt 0.700000 0.000000
vt 0.766667 0.000000
vt 0.833333 0.000000
vt 0.900000 0.000000
vt 0.966667 0.000000
vt 0.033333 1.000000
vt 0.100000 1.000000
vt 0.166667 1.000000
vt 0.233333 1.000000
vt 0.300000 1.000000
vt 0.366667 1.000000
vt 0.433333 1.000000
vt 0.500000 1.000000
vt 0.566667 1.000000
vt 0.633333 1.000000
vt 0.700000 1.000000
vt 0.766667 1.000000
vt 0.833333 1.000000
vt 0.900000 1.000000
vt 0.966667 1.000000
vn 0.351954 -0.923400 -0.153168
vn 0.258121 -0.924584 -0.280210
vn 0.402308 -0.804617 -0.436737
vn 0.547556 -0.802122 -0.238292
vn 0.119345 -0.925666 -0.359025
vn 0.186323 -0.806911 -0.560517
vn -0.040381 -0.925926 -0.375539
vn -0.063069 -0.807464 -0.586536
vn -0.193005 -0.925191 -0.326758
vn -0.301100 -0.805902 -0.509765
vn -0.311869 -0.923951 -0.221479
vn -0.485605 -0.803280 -0.344860
vn -0.376691 -0.923027 -0.078263
vn -0.585704 -0.801338 -0.121689
vn -0.376691 -0.923027 0.078263
vn -0.585704 -0.801338 0.121689
vn -0.311869 -0.923951 0.221479
vn -0.485605 -0.803280 0.344860
vn -0.193005 -0.925191 0.326758
vn -0.301100 -0.805902 0.509765
vn -0.040381 -0.925926 0.375539
vn -0.063069 -0.807464 0.586536
vn 0.119345 -0.925666 0.359025
vn 0.186323 -0.806911 0.560517
vn 0.258121 -0.924584 0.280210
vn 0.402308 -0.804617 0.436737
vn 0.351954 -0.923400 0.153168
vn 0.547556 -0.802122 0.238292
vn 0.385051 -0.922895 -0.000000
vn 0.598583 -0.801061 -0.000000
vn 0.519792 -0.641413 -0.564274
vn 0.705994 -0.638102 -0.307243
vn 0.241195 -0.644473 -0.725589
vn -0.081681 -0.645215 -0.759623
vn -0.389445 -0.643126 -0.659334
vn -0.626718 -0.639637 -0.445073
vn -0.754692 -0.637066 -0.156799
vn -0.754692 -0.637066 0.156799
vn -0.626718 -0.639637 0.445073
vn -0.389446 -0.643126 0.659334
vn -0.081681 -0.645215 0.759622
vn 0.241195 -0.644473 0.725589
vn 0.519792 -0.641413 0.564274
vn 0.705994 -0.638102 0.307243
vn 0.771110 -0.636701 -0.000000
vn 0.601300 -0.460811 -0.652757
vn 0.815281 -0.457636 -0.354804
vn 0.279469 -0.463760 -0.840728
vn -0.094679 -0.464477 -0.880510
vn -0.450922 -0.462460 -0.763414
vn -0.724315 -0.459105 -0.514383
vn -0.871047 -0.456646 -0.180973
vn -0.871047 -0.456646 0.180973
vn -0.724315 -0.459105 0.514383
vn -0.450922 -0.462460 0.763414
vn -0.094680 -0.464477 0.880509
vn 0.279469 -0.463760 0.840728
vn 0.601300 -0.460811 0.652757
vn 0.815281 -0.457636 0.354804
vn 0.889827 -0.456298 -0.000000
vn 0.651186 -0.276100 -0.706913
vn 0.881874 -0.273873 -0.383785
vn 0.302991 -0.278176 -0.911490
vn -0.102676 -0.278682 -0.954879
vn -0.488635 -0.277260 -0.827262
vn -0.783907 -0.274903 -0.556703
vn -0.941849 -0.273181 -0.195684
vn -0.941849 -0.273181 0.195683
vn -0.783907 -0.274903 0.556703
vn -0.488635 -0.277260 0.827262
vn -0.102676 -0.278682 0.954879
vn 0.302991 -0.278176 0.911490
vn 0.651186 -0.276100 0.706913
vn 0.881874 -0.273873 0.383785
vn 0.962032 -0.272937 -0.000000
vn 0.674659 -0.091840 -0.732394
vn 0.913124 -0.091046 -0.397385
vn 0.314087 -0.092582 -0.944869
vn -0.106451 -0.092763 -0.989981
vn -0.506404 -0.092255 -0.857347
vn -0.811906 -0.091413 -0.576587
vn -0.975047 -0.090799 -0.202581
vn -0.975047 -0.090799 0.202581
vn -0.811906 -0.091413 0.576587
vn -0.506405 -0.092255 0.857347
vn -0.106451 -0.092763 0.989981
vn 0.314087 -0.092582 0.944869
vn 0.674658 -0.091840 0.732394
vn 0.913124 -0.091046 0.397385
vn 0.995877 -0.090712 -0.000000
vn 0.674659 0.091840 -0.732394
vn 0.913124 0.091046 -0.397385
vn 0.314087 0.092582 -0.944869
vn -0.106451 0.092763 -0.989981
vn -0.506404 0.092255 -0.857347
vn -0.811906 0.091413 -0.576587
vn -0.975047 0.090799 -0.202581
vn -0.975047 0.090799 0.202581
vn -0.811906 0.091413 0.576587
vn -0.506405 0.092255 0.857347
vn -0.106451 0.092763 0.989981
vn 0.314087 0.092582 0.944869
vn 0.674658 0.091840 0.732394
vn 0.913124 0.091046 0.397385
vn 0.995877 0.090712 -0.000000
vn 0.651186 0.276100 -0.706913
vn 0.881874 0.273873 -0.383785
vn 0.302991 0.278176 -0.911490
vn -0.102676 0.278682 -0.954879
vn -0.488635 0.277260 -0.827262
vn -0.783907 0.274903 -0.556703
vn -0.941849 0.273181 -0.195684
vn -0.941849 0.273181 0.195683
vn -0.783907 0.274903 0.556703
vn -0.488635 0.277260 0.827262
vn -0.102676 0.278682 0.954879
vn 0.302991 0.278176 0.911490
vn 0.651186 0.276100 0.706913
vn 0.881874 0.273873 0.383785
vn 0.962032 0.272937 -0.000000
vn 0.601300 0.460811 -0.652757
vn 0.815281 0.457636 -0.354804
vn 0.279469 0.463760 -0.840728
vn -0.094679 0.464477 -0.880510
vn -0.450922 0.462460 -0.763414
vn -0.724315 0.459105 -0.514383
vn -0.871047 0.456646 -0.180973
vn -0.871047 0.456646 0.180973
vn -0.724315 0.459105 0.514383
vn -0.450922 0.462460 0.763414
vn -0.094680 0.464477 0.880509
vn 0.279469 0.463760 0.840728
vn 0.601300 0.460811 0.652757
vn 0.815281 0.457636 0.354804
vn 0.889827 0.456298 -0.000000
vn 0.519792 0.641413 -0.564274
vn 0.705994 0.638102 -0.307243
vn 0.241195 0.644473 -0.725589
vn -0.081681 0.645215 -0.759623
vn -0.389445 0.643126 -0.659334
vn -0.626718 0.639637 -0.445073
vn -0.754692 0.637066 -0.156799
vn -0.754692 0.637066 0.156799
vn -0.626718 0.639637 0.445073
vn -0.389446 0.643126 0.659334
vn -0.081681 0.645215 0.759622
vn 0.241195 0.644474 0.725589
vn 0.519792 0.641413 0.564274
vn 0.705994 0.638102 0.307243
vn 0.771110 0.636701 -0.000000
vn 0.402308 0.804617 -0.436737
vn 0.547556 0.802121 -0.238292
vn 0.186323 0.806911 -0.560517
vn -0.063069 0.807464 -0.586536
vn -0.301100 0.805902 -0.509765
vn -0.485605 0.803280 -0.344860
vn -0.585704 0.801338 -0.121689
vn -0.585704 0.801338 0.121689
vn -0.485605 0.803280 0.344860
vn -0.301100 0.805902 0.509765
vn -0.063069 0.807464 0.586536
vn 0.186323 0.806911 0.560517
vn 0.402308 0.804617 0.436737
vn 0.547556 0.802122 0.238292
vn 0.598583 0.801061 -0.000000
vn 0.258121 0.924584 -0.280211
vn 0.351954 0.923400 -0.153168
vn 0.119345 0.925666 -0.359025
vn -0.040381 0.925926 -0.375539
vn -0.193004 0.925191 -0.326758
vn -0.311869 0.923951 -0.221479
vn -0.376691 0.923027 -0.078263
vn -0.376691 0.923027 0.078263
vn -0.311869 0.923951 0.221479
vn -0.193005 0.925191 0.326758
vn -0.040381 0.925926 0.375539
vn 0.119345 0.925666 0.359025
vn 0.258121 0.924584 0.280211
vn 0.351954 0.923400 0.153168
vn 0.385051 0.922895 -0.000000
vn -0.000000 -1.000000 0.000000
vn -0.000000 1.000000 0.000000
s 1
g pSphere1
usemtl initialShadingGroup
f 1/1/1 2/2/2 17/18/3 16/17/4
f 2/2/2 3/3/5 18/19/6 17/18/3
f 3/3/5 4/4/7 19/20/8 18/19/6
f 4/4/7 5/5/9 20/21/10 19/20/8
f 5/5/9 6/6/11 21/22/12 20/21/10
f 6/6/11 7/7/13 22/23/14 21/22/12
f 7/7/13 8/8/15 23/24/16 22/23/14
f 8/8/15 9/9/17 24/25/18 23/24/16
f 9/9/17 10/10/19 25/26/20 24/25/18
f 10/10/19 11/11/21 26/27/22 25/26/20
f 11/11/21 12/12/23 27/28/24 26/27/22
f 12/12/23 13/13/25 28/29/26 27/28/24
f 13/13/25 14/14/27 29/30/28 28/29/26
f 14/14/27 15/15/29 30/31/30 29/30/28
f 15/15/29 1/16/1 16/32/4 30/31/30
f 16/17/4 17/18/3 32/34/31 31/33/32
f 17/18/3 18/19/6 33/35/33 32/34/31
f 18/19/6 19/20/8 34/36/34 33/35/33
f 19/20/8 20/21/10 35/37/35 34/36/34
f 20/21/10 21/22/12 36/38/36 35/37/35
f 21/22/12 22/23/14 37/39/37 36/38/36
f 22/23/14 23/24/16 38/40/38 37/39/37
f 23/24/16 24/25/18 39/41/39 38/40/38
f 24/25/18 25/26/20 40/42/40 39/41/39
f 25/26/20 26/27/22 41/43/41 40/42/40
f 26/27/22 27/28/24 42/44/42 41/43/41
f 27/28/24 28/29/26 43/45/43 42/44/42
f 28/29/26 29/30/28 44/46/44 43/45/43
f 29/30/28 30/31/30 45/47/45 44/46/44
f 30/31/30 16/32/4 31/48/32 45/47/45
f 31/33/32 32/34/31 47/50/46 46/49/47
f 32/34/31 33/35/33 48/51/48 47/50/46
f 33/35/33 34/36/34 49/52/49 48/51/48
f 34/36/34 35/37/35 50/53/50 49/52/49
f 35/37/35 36/38/36 51/54/51 50/53/50
f 36/38/36 37/39/37 52/55/52 51/54/51
f 37/39/37 38/40/38 53/56/53 52/55/52
f 38/40/38 39/41/39 54/57/54 53/56/53
f 39/41/39 40/42/40 55/58/55 54/57/54
f 40/42/40 41/43/41 56/59/56 55/58/55
f 41/43/41 42/44/42 57/60/57 56/59/56
f 42/44/42 43/45/43 58/61/58 57/60/57
f 43/45/43 44/46/44 59/62/59 58/61/58
f 44/46/44 45/47/45 60/63/60 59/62/59
f 45/47/45 31/48/32 46/64/47 60/63/60
f 46/49/47 47/50/46 62/66/61 61/65/62
f 47/50/46 48/51/48 63/67/63 62/66/61
f 48/51/48 49/52/49 64/68/64 63/67/63
f 49/52/49 50/53/50 65/69/65 64/68/64
f 50/53/50 51/54/51 66/70/66 65/69/65
f 51/54/51 52/55/52 67/71/67 66/70/66
f 52/55/52 53/56/53 68/72/68 67/71/67
f 53/56/53 54/57/54 69/73/69 68/72/68
f 54/57/54 55/58/55 70/74/70 69/73/69
f 55/58/55 56/59/56 71/75/71 70/74/70
f 56/59/56 57/60/57 72/76/72 71/75/71
f 57/60/57 58/61/58 73/77/73 72/76/72
f 58/61/58 59/62/59 74/78/74 73/77/73
f 59/62/59 60/63/60 75/79/75 74/78/74
f 60/63/60 46/64/47 61/80/62 75/79/75
f 61/65/62 62/66/61 77/82/76 76/81/77
f 62/66/61 63/67/63 78/83/78 77/82/76
f 63/67/63 64/68/64 79/84/79 78/83/78
f 64/68/64 65/69/65 80/85/80 79/84/79
f 65/69/65 66/70/66 81/86/81 80/85/80
f 66/70/66 67/71/67 82/87/82 81/86/81
f 67/71/67 68/72/68 83/88/83 82/87/82
f 68/72/68 69/73/69 84/89/84 83/88/83
f 69/73/69 70/74/70 85/90/85 84/89/84
f 70/74/70 71/75/71 86/91/86 85/90/85
f 71/75/71 72/76/72 87/92/87 86/91/86
f 72/76/72 73/77/73 88/93/88 87/92/87
f 73/77/73 74/78/74 89/94/89 88/93/88
f 74/78/74 75/79/75 90/95/90 89/94/89
f 75/79/75 61/80/62 76/96/77 90/95/90
f 76/81/77 77/82/76 92/98/91 91/97/92
f 77/82/76 78/83/78 93/99/93 92/98/91
f 78/83/78 79/84/79 94/100/94 93/99/93
f 79/84/79 80/85/80 95/101/95 94/100/94
f 80/85/80 81/86/81 96/102/96 95/101/95
f 81/86/81 82/87/82 97/103/97 96/102/96
f 82/87/82 83/88/83 98/104/98 97/103/97
f 83/88/83 84/89/84 99/105/99 98/104/98
f 84/89/84 85/90/85 100/106/100 99/105/99
f 85/90/85 86/91/86 101/107/101 100/106/100
f 86/91/86 87/92/87 102/108/102 101/107/101
f 87/92/87 88/93/88 103/109/103 102/108/102
f 88/93/88 89/94/89 104/110/104 103/109/103
f 89/94/89 90/95/90 105/111/105 104/110/104
f 90/95/90 76/96/77 91/112/92 105/111/105
f 91/97/92 92/98/91 107/114/106 106/113/107
f 92/98/91 93/99/93 108/115/108 107/114/106
f 93/99/93 94/100/94 109/116/109 108/115/108
f 94/100/94 95/101/95 110/117/110 109/116/109
f 95/101/95 96/102/96 111/118/111 110/117/110
f 96/102/96 97/103/97 112/119/112 111/118/111
f 97/103/97 98/104/98 113/120/113 112/119/112
f 98/104/98 99/105/99 114/121/114 113/120/113
f 99/105/99 100/106/100 115/122/115 114/121/114
f 100/106/100 101/107/101 116/123/116 115/122/115
f 101/107/101 102/108/102 117/124/117 116/123/116
f 102/108/102 103/109/103 118/125/118 117/124/117
f 103/109/103 104/110/104 119/126/119 118/125/118
f 104/110/104 105/111/105 120/127/120 119/126/119
f 105/111/105 91/112/92 106/128/107 120/127/120
f 106/113/107 107/114/106 122/130/121 121/129/122
f 107/114/106 108/115/108 123/131/123 122/130/121
f 108/115/108 109/116/109 124/132/124 123/131/123
f 109/116/109 110/117/110 125/133/125 124/132/124
f 110/117/110 111/118/111 126/134/126 125/133/125
f 111/118/111 112/119/112 127/135/127 126/134/126
f 112/119/112 113/120/113 128/136/128 127/135/127
f 113/120/113 114/121/114 129/137/129 128/136/128
f 114/121/114 115/122/115 130/138/130 129/137/129
f 115/122/115 116/123/116 131/139/131 130/138/130
f 116/123/116 117/124/117 132/140/132 131/139/131
f 117/124/117 118/125/118 133/141/133 132/140/132
f 118/125/118 119/126/119 134/142/134 133/141/133
f 119/126/119 120/127/120 135/143/135 134/142/134
f 120/127/120 106/128/107 121/144/122 135/143/135
f 121/129/122 122/130/121 137/146/136 136/145/137
f 122/130/121 123/131/123 138/147/138 137/146/136
f 123/131/123 124/132/124 139/148/139 138/147/138
f 124/132/124 125/133/125 140/149/140 139/148/139
f 125/133/125 126/134/126 141/150/141 140/149/140
f 126/134/126 127/135/127 142/151/142 141/150/141
f 127/135/127 128/136/128 143/152/143 142/151/142
f 128/136/128 129/137/129 144/153/144 143/152/143
f 129/137/129 130/138/130 145/154/145 144/153/144
f 130/138/130 131/139/131 146/155/146 145/154/145
f 131/139/131 132/140/132 147/156/147 146/155/146
f 132/140/132 133/141/133 148/157/148 147/156/147
f 133/141/133 134/142/134 149/158/149 148/157/148
f 134/142/134 135/143/135 150/159/150 149/158/149
f 135/143/135 121/144/122 136/160/137 150/159/150
f 136/145/137 137/146/136 152/162/151 151/161/152
f 137/146/136 138/147/138 153/163/153 152/162/151
f 138/147/138 139/148/139 154/164/154 153/163/153
f 139/148/139 140/149/140 155/165/155 154/164/154
f 140/149/140 141/150/141 156/166/156 155/165/155
f 141/150/141 142/151/142 157/167/157 156/166/156
f 142/151/142 143/152/143 158/168/158 157/167/157
f 143/152/143 144/153/144 159/169/159 158/168/158
f 144/153/144 145/154/145 160/170/160 159/169/159
f 145/154/145 146/155/146 161/171/161 160/170/160
f 146/155/146 147/156/147 162/172/162 161/171/161
f 147/156/147 148/157/148 163/173/163 162/172/162
f 148/157/148 149/158/149 164/174/164 163/173/163
f 149/158/149 150/159/150 165/175/165 164/174/164
f 150/159/150 136/160/137 151/176/152 165/175/165
f 151/161/152 152/162/151 167/178/166 166/177/167
f 152/162/151 153/163/153 168/179/168 167/178/166
f 153/163/153 154/164/154 169/180/169 168/179/168
f 154/164/154 155/165/155 170/181/170 169/180/169
f 155/165/155 156/166/156 171/182/171 170/181/170
f 156/166/156 157/167/157 172/183/172 171/182/171
f 157/167/157 158/168/158 173/184/173 172/183/172
f 158/168/158 159/169/159 174/185/174 173/184/173
f 159/169/159 160/170/160 175/186/175 174/185/174
f 160/170/160 161/171/161 176/187/176 175/186/175
f 161/171/161 162/172/162 177/188/177 176/187/176
f 162/172/162 163/173/163 178/189/178 177/188/177
f 163/173/163 164/174/164 179/190/179 178/189/178
f 164/174/164 165/175/165 180/191/180 179/190/179
f 165/175/165 151/176/152 166/192/167 180/191/180
f 2/2/2 1/1/1 181/193/181
f 3/3/5 2/2/2 181/194/181
f 4/4/7 3/3/5 181/195/181
f 5/5/9 4/4/7 181/196/181
f 6/6/11 5/5/9 181/197/181
f 7/7/13 6/6/11 181/198/181
f 8/8/15 7/7/13 181/199/181
f 9/9/17 8/8/15 181/200/181
f 10/10/19 9/9/17 181/201/181
f 11/11/21 10/10/19 181/202/181
f 12/12/23 11/11/21 181/203/181
f 13/13/25 12/12/23 181/204/181
f 14/14/27 13/13/25 181/205/181
f 15/15/29 14/14/27 181/206/181
f 1/16/1 15/15/29 181/207/181
f 166/177/167 167/178/166 182/208/182
f 167/178/166 168/179/168 182/209/182
f 168/179/168 169/180/169 182/210/182
f 169/180/169 170/181/170 182/211/182
f 170/181/170 171/182/171 182/212/182
f 171/182/171 172/183/172 182/213/182
f 172/183/172 173/184/173 182/214/182
f 173/184/173 174/185/174 182/215/182
f 174/185/174 175/186/175 182/216/182
f 175/186/175 176/187/176 182/217/182
f 176/187/176 177/188/177 182/218/182
f 177/188/177 178/189/178 182/219/182
f 178/189/178 179/190/179 182/220/182
f 179/190/179 180/191/180 182/221/182
f 180/191/180 166/192/167 182/222/182
