# This file uses centimeters as units for non-parametric coordinates.

mtllib eggBottom.mtl
g default
v 0.412359 -0.178354 -0.187828
v 0.302034 -0.178354 -0.343179
v 0.139485 -0.178354 -0.439191
v -0.047182 -0.178354 -0.459263
v -0.225691 -0.178354 -0.399924
v -0.365176 -0.178354 -0.271435
v -0.441519 -0.178354 -0.096012
v -0.441519 -0.178354 0.096012
v -0.365176 -0.178354 0.271435
v -0.225691 -0.178354 0.399924
v -0.047182 -0.178354 0.459263
v 0.139485 -0.178354 0.439191
v 0.302034 -0.178354 0.343179
v 0.412359 -0.178354 0.187828
v 0.451383 -0.178354 0.000000
v 0.800753 0.029857 -0.364740
v 0.586515 0.029857 -0.666413
v 0.270864 0.029857 -0.852857
v -0.091623 0.029857 -0.891835
v -0.438266 0.029857 -0.776606
v -0.709130 0.029857 -0.527095
v -0.857379 0.029857 -0.186444
v -0.857379 0.029857 0.186444
v -0.709130 0.029857 0.527095
v -0.438267 0.029857 0.776606
v -0.091623 0.029857 0.891835
v 0.270864 0.029857 0.852857
v 0.586515 0.029857 0.666413
v 0.800753 0.029857 0.364740
v 0.876533 0.029857 0.000000
v 1.142610 0.363404 -0.520454
v 0.836910 0.363404 -0.950918
v 0.386501 0.363404 -1.216959
v -0.130738 0.363404 -1.272577
v -0.625371 0.363404 -1.108154
v -1.011872 0.363404 -0.752122
v -1.223411 0.363404 -0.266041
v -1.223411 0.363404 0.266041
v -1.011872 0.363404 0.752122
v -0.625371 0.363404 1.108154
v -0.130738 0.363404 1.272577
v 0.386501 0.363404 1.216959
v 0.836910 0.363404 0.950918
v 1.142610 0.363404 0.520455
v 1.250743 0.363404 0.000000
v 1.418063 0.802903 -0.645922
v 1.038667 0.802903 -1.180158
v 0.479676 0.802903 -1.510335
v -0.162255 0.802903 -1.579361
v -0.776131 0.802903 -1.375301
v -1.255807 0.802903 -0.933439
v -1.518342 0.802903 -0.330176
v -1.518342 0.802903 0.330176
v -1.255807 0.802903 0.933438
v -0.776132 0.802903 1.375301
v -0.162256 0.802903 1.579361
v 0.479676 0.802903 1.510335
v 1.038667 0.802903 1.180159
v 1.418063 0.802903 0.645922
v 1.552263 0.802903 0.000000
v 1.611103 1.322811 -0.733851
v 1.180060 1.322811 -1.340813
v 0.544974 1.322811 -1.715936
v -0.184343 1.322811 -1.794358
v -0.881786 1.322811 -1.562520
v -1.426759 1.322811 -1.060507
v -1.725034 1.322811 -0.375123
v -1.725034 1.322811 0.375123
v -1.426760 1.322811 1.060507
v -0.881786 1.322811 1.562520
v -0.184344 1.322811 1.794359
v 0.544974 1.322811 1.715937
v 1.180060 1.322811 1.340813
v 1.611103 1.322811 0.733852
v 1.763572 1.322811 0.000000
v 1.710512 1.892913 -0.779131
v 1.252872 1.892913 -1.423544
v 0.578600 1.892913 -1.821813
v -0.195718 1.892913 -1.905074
v -0.936194 1.892913 -1.658931
v -1.514794 1.892913 -1.125943
v -1.831472 1.892913 -0.398269
v -1.831472 1.892913 0.398269
v -1.514794 1.892913 1.125943
v -0.936194 1.892913 1.658931
v -0.195718 1.892913 1.905074
v 0.578600 1.892913 1.821814
v 1.252872 1.892913 1.423545
v 1.710512 1.892913 0.779132
v 1.872388 1.892913 0.000000
v 0.000000 -0.249129 0.000000
v 1.252872 2.271296 -1.423544
v 0.578600 2.134039 -1.821813
v -0.195718 2.220061 -1.905074
v -0.936194 2.134039 -1.658931
v -1.514794 2.005044 -1.125943
v -1.831472 2.134039 -0.398269
v -1.831472 2.220237 0.398269
v -1.514794 2.130819 1.125943
v -0.936194 2.260007 1.658931
v -0.195718 2.042494 1.905074
v 0.578600 2.260007 1.821814
v 1.218806 2.446690 1.423545
v 1.710512 2.338571 0.779132
v 1.889919 1.978868 0.000000
v 1.710512 2.058862 -0.779131
vt 0.000000 0.076923
vt 0.066667 0.076923
vt 0.066667 0.153846
vt 0.000000 0.153846
vt 0.133333 0.076923
vt 0.133333 0.153846
vt 0.200000 0.076923
vt 0.200000 0.153846
vt 0.266667 0.076923
vt 0.266667 0.153846
vt 0.333333 0.076923
vt 0.333333 0.153846
vt 0.400000 0.076923
vt 0.400000 0.153846
vt 0.466667 0.076923
vt 0.466667 0.153846
vt 0.533333 0.076923
vt 0.533333 0.153846
vt 0.600000 0.076923
vt 0.600000 0.153846
vt 0.666667 0.076923
vt 0.666667 0.153846
vt 0.733333 0.076923
vt 0.733333 0.153846
vt 0.800000 0.076923
vt 0.800000 0.153846
vt 0.866667 0.076923
vt 0.866667 0.153846
vt 0.933333 0.076923
vt 0.933333 0.153846
vt 1.000000 0.076923
vt 1.000000 0.153846
vt 0.066667 0.230769
vt 0.000000 0.230769
vt 0.133333 0.230769
vt 0.200000 0.230769
vt 0.266667 0.230769
vt 0.333333 0.230769
vt 0.400000 0.230769
vt 0.466667 0.230769
vt 0.533333 0.230769
vt 0.600000 0.230769
vt 0.666667 0.230769
vt 0.733333 0.230769
vt 0.800000 0.230769
vt 0.866667 0.230769
vt 0.933333 0.230769
vt 1.000000 0.230769
vt 0.066667 0.307692
vt 0.000000 0.307692
vt 0.133333 0.307692
vt 0.200000 0.307692
vt 0.266667 0.307692
vt 0.333333 0.307692
vt 0.400000 0.307692
vt 0.466667 0.307692
vt 0.533333 0.307692
vt 0.600000 0.307692
vt 0.666667 0.307692
vt 0.733333 0.307692
vt 0.800000 0.307692
vt 0.866667 0.307692
vt 0.933333 0.307692
vt 1.000000 0.307692
vt 0.066667 0.384615
vt 0.000000 0.384615
vt 0.133333 0.384615
vt 0.200000 0.384615
vt 0.266667 0.384615
vt 0.333333 0.384615
vt 0.400000 0.384615
vt 0.466667 0.384615
vt 0.533333 0.384615
vt 0.600000 0.384615
vt 0.666667 0.384615
vt 0.733333 0.384615
vt 0.800000 0.384615
vt 0.866667 0.384615
vt 0.933333 0.384615
vt 1.000000 0.384615
vt 0.066667 0.461538
vt 0.000000 0.461538
vt 0.133333 0.461538
vt 0.200000 0.461538
vt 0.266667 0.461538
vt 0.333333 0.461538
vt 0.400000 0.461538
vt 0.466667 0.461538
vt 0.533333 0.461538
vt 0.600000 0.461538
vt 0.666667 0.461538
vt 0.733333 0.461538
vt 0.800000 0.461538
vt 0.866667 0.461538
vt 0.933333 0.461538
vt 1.000000 0.461538
vt 0.033333 0.000000
vt 0.100000 0.000000
vt 0.166667 0.000000
vt 0.233333 0.000000
vt 0.300000 0.000000
vt 0.366667 0.000000
vt 0.433333 0.000000
vt 0.500000 0.000000
vt 0.566667 0.000000
vt 0.633333 0.000000
vt 0.700000 0.000000
vt 0.766667 0.000000
vt 0.833333 0.000000
vt 0.900000 0.000000
vt 0.966667 0.000000
vt 0.133333 0.493128
vt 0.066667 0.493128
vt 0.200000 0.493128
vt 0.266667 0.493128
vt 0.333333 0.493128
vt 0.400000 0.493128
vt 0.466667 0.493128
vt 0.533333 0.493128
vt 0.600000 0.493128
vt 0.666667 0.493128
vt 0.733333 0.493128
vt 0.800000 0.493128
vt 0.866667 0.493128
vt 0.933333 0.493128
vt 1.000000 0.493128
vt 0.000000 0.493128
vn 0.351954 -0.923400 -0.153168
vn 0.258121 -0.924584 -0.280210
vn 0.402308 -0.804617 -0.436737
vn 0.547556 -0.802122 -0.238292
vn 0.258121 -0.924584 -0.280210
vn 0.119345 -0.925666 -0.359025
vn 0.186323 -0.806911 -0.560517
vn 0.402308 -0.804617 -0.436737
vn 0.119345 -0.925666 -0.359025
vn -0.040381 -0.925926 -0.375539
vn -0.063069 -0.807464 -0.586536
vn 0.186323 -0.806911 -0.560517
vn -0.040381 -0.925926 -0.375539
vn -0.193005 -0.925191 -0.326758
vn -0.301100 -0.805902 -0.509765
vn -0.063069 -0.807464 -0.586536
vn -0.193005 -0.925191 -0.326758
vn -0.311869 -0.923951 -0.221479
vn -0.485605 -0.803280 -0.344860
vn -0.301100 -0.805902 -0.509765
vn -0.311869 -0.923951 -0.221479
vn -0.376691 -0.923027 -0.078263
vn -0.585704 -0.801338 -0.121689
vn -0.485605 -0.803280 -0.344860
vn -0.376691 -0.923027 -0.078263
vn -0.376691 -0.923027 0.078263
vn -0.585704 -0.801338 0.121689
vn -0.585704 -0.801338 -0.121689
vn -0.376691 -0.923027 0.078263
vn -0.311869 -0.923951 0.221479
vn -0.485605 -0.803280 0.344860
vn -0.585704 -0.801338 0.121689
vn -0.311869 -0.923951 0.221479
vn -0.193005 -0.925191 0.326758
vn -0.301100 -0.805902 0.509765
vn -0.485605 -0.803280 0.344860
vn -0.193005 -0.925191 0.326758
vn -0.040381 -0.925926 0.375539
vn -0.063069 -0.807464 0.586536
vn -0.301100 -0.805902 0.509765
vn -0.040381 -0.925926 0.375539
vn 0.119345 -0.925666 0.359025
vn 0.186323 -0.806911 0.560517
vn -0.063069 -0.807464 0.586536
vn 0.119345 -0.925666 0.359025
vn 0.258121 -0.924584 0.280210
vn 0.402308 -0.804617 0.436737
vn 0.186323 -0.806911 0.560517
vn 0.258121 -0.924584 0.280210
vn 0.351954 -0.923400 0.153168
vn 0.547556 -0.802122 0.238292
vn 0.402308 -0.804617 0.436737
vn 0.351954 -0.923400 0.153168
vn 0.385051 -0.922895 0.000000
vn 0.598583 -0.801061 0.000000
vn 0.547556 -0.802122 0.238292
vn 0.385051 -0.922895 0.000000
vn 0.351954 -0.923400 -0.153168
vn 0.547556 -0.802122 -0.238292
vn 0.598583 -0.801061 0.000000
vn 0.547556 -0.802122 -0.238292
vn 0.402308 -0.804617 -0.436737
vn 0.519792 -0.641413 -0.564274
vn 0.705994 -0.638102 -0.307243
vn 0.402308 -0.804617 -0.436737
vn 0.186323 -0.806911 -0.560517
vn 0.241195 -0.644473 -0.725589
vn 0.519792 -0.641413 -0.564274
vn 0.186323 -0.806911 -0.560517
vn -0.063069 -0.807464 -0.586536
vn -0.081681 -0.645215 -0.759623
vn 0.241195 -0.644473 -0.725589
vn -0.063069 -0.807464 -0.586536
vn -0.301100 -0.805902 -0.509765
vn -0.389445 -0.643126 -0.659334
vn -0.081681 -0.645215 -0.759623
vn -0.301100 -0.805902 -0.509765
vn -0.485605 -0.803280 -0.344860
vn -0.626718 -0.639637 -0.445073
vn -0.389445 -0.643126 -0.659334
vn -0.485605 -0.803280 -0.344860
vn -0.585704 -0.801338 -0.121689
vn -0.754692 -0.637066 -0.156799
vn -0.626718 -0.639637 -0.445073
vn -0.585704 -0.801338 -0.121689
vn -0.585704 -0.801338 0.121689
vn -0.754692 -0.637066 0.156799
vn -0.754692 -0.637066 -0.156799
vn -0.585704 -0.801338 0.121689
vn -0.485605 -0.803280 0.344860
vn -0.626718 -0.639637 0.445073
vn -0.754692 -0.637066 0.156799
vn -0.485605 -0.803280 0.344860
vn -0.301100 -0.805902 0.509765
vn -0.389446 -0.643126 0.659334
vn -0.626718 -0.639637 0.445073
vn -0.301100 -0.805902 0.509765
vn -0.063069 -0.807464 0.586536
vn -0.081681 -0.645215 0.759622
vn -0.389446 -0.643126 0.659334
vn -0.063069 -0.807464 0.586536
vn 0.186323 -0.806911 0.560517
vn 0.241195 -0.644473 0.725589
vn -0.081681 -0.645215 0.759622
vn 0.186323 -0.806911 0.560517
vn 0.402308 -0.804617 0.436737
vn 0.519792 -0.641413 0.564274
vn 0.241195 -0.644473 0.725589
vn 0.402308 -0.804617 0.436737
vn 0.547556 -0.802122 0.238292
vn 0.705994 -0.638102 0.307243
vn 0.519792 -0.641413 0.564274
vn 0.547556 -0.802122 0.238292
vn 0.598583 -0.801061 0.000000
vn 0.771111 -0.636701 0.000000
vn 0.705994 -0.638102 0.307243
vn 0.598583 -0.801061 0.000000
vn 0.547556 -0.802122 -0.238292
vn 0.705994 -0.638102 -0.307243
vn 0.771111 -0.636701 0.000000
vn 0.705994 -0.638102 -0.307243
vn 0.519792 -0.641413 -0.564274
vn 0.601300 -0.460811 -0.652757
vn 0.815281 -0.457636 -0.354804
vn 0.519792 -0.641413 -0.564274
vn 0.241195 -0.644473 -0.725589
vn 0.279469 -0.463760 -0.840728
vn 0.601300 -0.460811 -0.652757
vn 0.241195 -0.644473 -0.725589
vn -0.081681 -0.645215 -0.759623
vn -0.094679 -0.464477 -0.880510
vn 0.279469 -0.463760 -0.840728
vn -0.081681 -0.645215 -0.759623
vn -0.389445 -0.643126 -0.659334
vn -0.450922 -0.462460 -0.763414
vn -0.094679 -0.464477 -0.880510
vn -0.389445 -0.643126 -0.659334
vn -0.626718 -0.639637 -0.445073
vn -0.724315 -0.459105 -0.514383
vn -0.450922 -0.462460 -0.763414
vn -0.626718 -0.639637 -0.445073
vn -0.754692 -0.637066 -0.156799
vn -0.871047 -0.456646 -0.180973
vn -0.724315 -0.459105 -0.514383
vn -0.754692 -0.637066 -0.156799
vn -0.754692 -0.637066 0.156799
vn -0.871047 -0.456646 0.180973
vn -0.871047 -0.456646 -0.180973
vn -0.754692 -0.637066 0.156799
vn -0.626718 -0.639637 0.445073
vn -0.724315 -0.459105 0.514383
vn -0.871047 -0.456646 0.180973
vn -0.626718 -0.639637 0.445073
vn -0.389446 -0.643126 0.659334
vn -0.450922 -0.462460 0.763414
vn -0.724315 -0.459105 0.514383
vn -0.389446 -0.643126 0.659334
vn -0.081681 -0.645215 0.759622
vn -0.094680 -0.464477 0.880509
vn -0.450922 -0.462460 0.763414
vn -0.081681 -0.645215 0.759622
vn 0.241195 -0.644473 0.725589
vn 0.279469 -0.463760 0.840728
vn -0.094680 -0.464477 0.880509
vn 0.241195 -0.644473 0.725589
vn 0.519792 -0.641413 0.564274
vn 0.601300 -0.460811 0.652757
vn 0.279469 -0.463760 0.840728
vn 0.519792 -0.641413 0.564274
vn 0.705994 -0.638102 0.307243
vn 0.815281 -0.457636 0.354804
vn 0.601300 -0.460811 0.652757
vn 0.705994 -0.638102 0.307243
vn 0.771111 -0.636701 0.000000
vn 0.889827 -0.456298 0.000000
vn 0.815281 -0.457636 0.354804
vn 0.771111 -0.636701 0.000000
vn 0.705994 -0.638102 -0.307243
vn 0.815281 -0.457636 -0.354804
vn 0.889827 -0.456298 0.000000
vn 0.815281 -0.457636 -0.354804
vn 0.601300 -0.460811 -0.652757
vn 0.651186 -0.276100 -0.706913
vn 0.881874 -0.273873 -0.383785
vn 0.601300 -0.460811 -0.652757
vn 0.279469 -0.463760 -0.840728
vn 0.302991 -0.278176 -0.911490
vn 0.651186 -0.276100 -0.706913
vn 0.279469 -0.463760 -0.840728
vn -0.094679 -0.464477 -0.880510
vn -0.102676 -0.278682 -0.954879
vn 0.302991 -0.278176 -0.911490
vn -0.094679 -0.464477 -0.880510
vn -0.450922 -0.462460 -0.763414
vn -0.488635 -0.277260 -0.827262
vn -0.102676 -0.278682 -0.954879
vn -0.450922 -0.462460 -0.763414
vn -0.724315 -0.459105 -0.514383
vn -0.783907 -0.274903 -0.556703
vn -0.488635 -0.277260 -0.827262
vn -0.724315 -0.459105 -0.514383
vn -0.871047 -0.456646 -0.180973
vn -0.941849 -0.273181 -0.195684
vn -0.783907 -0.274903 -0.556703
vn -0.871047 -0.456646 -0.180973
vn -0.871047 -0.456646 0.180973
vn -0.941849 -0.273181 0.195683
vn -0.941849 -0.273181 -0.195684
vn -0.871047 -0.456646 0.180973
vn -0.724315 -0.459105 0.514383
vn -0.783907 -0.274903 0.556703
vn -0.941849 -0.273181 0.195683
vn -0.724315 -0.459105 0.514383
vn -0.450922 -0.462460 0.763414
vn -0.488635 -0.277260 0.827262
vn -0.783907 -0.274903 0.556703
vn -0.450922 -0.462460 0.763414
vn -0.094680 -0.464477 0.880509
vn -0.102676 -0.278682 0.954879
vn -0.488635 -0.277260 0.827262
vn -0.094680 -0.464477 0.880509
vn 0.279469 -0.463760 0.840728
vn 0.302991 -0.278176 0.911490
vn -0.102676 -0.278682 0.954879
vn 0.279469 -0.463760 0.840728
vn 0.601300 -0.460811 0.652757
vn 0.651186 -0.276100 0.706913
vn 0.302991 -0.278176 0.911490
vn 0.601300 -0.460811 0.652757
vn 0.815281 -0.457636 0.354804
vn 0.881874 -0.273873 0.383785
vn 0.651186 -0.276100 0.706913
vn 0.815281 -0.457636 0.354804
vn 0.889827 -0.456298 0.000000
vn 0.962032 -0.272937 0.000000
vn 0.881874 -0.273873 0.383785
vn 0.889827 -0.456298 0.000000
vn 0.815281 -0.457636 -0.354804
vn 0.881874 -0.273873 -0.383785
vn 0.962032 -0.272937 0.000000
vn 0.881874 -0.273873 -0.383785
vn 0.651186 -0.276100 -0.706913
vn 0.669226 -0.103275 -0.735847
vn 0.896733 -0.127535 -0.423799
vn 0.651186 -0.276100 -0.706913
vn 0.302991 -0.278176 -0.911490
vn 0.317881 -0.103116 -0.942507
vn 0.669226 -0.103275 -0.735847
vn 0.302991 -0.278176 -0.911490
vn -0.102676 -0.278682 -0.954879
vn -0.106316 -0.105429 -0.988727
vn 0.317881 -0.103116 -0.942507
vn -0.102676 -0.278682 -0.954879
vn -0.488635 -0.277260 -0.827262
vn -0.487713 -0.114671 -0.865440
vn -0.106316 -0.105429 -0.988727
vn -0.488635 -0.277260 -0.827262
vn -0.783907 -0.274903 -0.556703
vn -0.808893 -0.125304 -0.574448
vn -0.487713 -0.114671 -0.865440
vn -0.783907 -0.274903 -0.556703
vn -0.941849 -0.273181 -0.195684
vn -0.976637 -0.112798 -0.182914
vn -0.808893 -0.125304 -0.574448
vn -0.941849 -0.273181 -0.195684
vn -0.941849 -0.273181 0.195683
vn -0.973906 -0.103320 0.202070
vn -0.976637 -0.112798 -0.182914
vn -0.941849 -0.273181 0.195683
vn -0.783907 -0.274903 0.556703
vn -0.809101 -0.102532 0.578657
vn -0.973906 -0.103320 0.202070
vn -0.783907 -0.274903 0.556703
vn -0.488635 -0.277260 0.827262
vn -0.512296 -0.105457 0.852310
vn -0.809101 -0.102532 0.578657
vn -0.488635 -0.277260 0.827262
vn -0.102676 -0.278682 0.954879
vn -0.106264 -0.109938 0.988242
vn -0.512296 -0.105457 0.852310
vn -0.102676 -0.278682 0.954879
vn 0.302991 -0.278176 0.911490
vn 0.346720 -0.088362 0.933797
vn -0.106264 -0.109938 0.988242
vn 0.302991 -0.278176 0.911490
vn 0.651186 -0.276100 0.706913
vn 0.681989 -0.065617 0.728413
vn 0.346720 -0.088362 0.933797
vn 0.651186 -0.276100 0.706913
vn 0.881874 -0.273873 0.383785
vn 0.893202 -0.085171 0.441516
vn 0.681989 -0.065617 0.728413
vn 0.881874 -0.273873 0.383785
vn 0.962032 -0.272937 0.000000
vn 0.990349 -0.134785 0.032267
vn 0.893202 -0.085171 0.441516
vn 0.962032 -0.272937 0.000000
vn 0.881874 -0.273873 -0.383785
vn 0.896733 -0.127535 -0.423799
vn 0.990349 -0.134785 0.032267
vn 0.258121 -0.924584 -0.280210
vn 0.351954 -0.923400 -0.153168
vn 0.000000 -1.000000 0.000000
vn 0.119345 -0.925666 -0.359025
vn 0.258121 -0.924584 -0.280210
vn 0.000000 -1.000000 0.000000
vn -0.040381 -0.925926 -0.375539
vn 0.119345 -0.925666 -0.359025
vn 0.000000 -1.000000 0.000000
vn -0.193005 -0.925191 -0.326758
vn -0.040381 -0.925926 -0.375539
vn 0.000000 -1.000000 0.000000
vn -0.311869 -0.923951 -0.221479
vn -0.193005 -0.925191 -0.326758
vn 0.000000 -1.000000 0.000000
vn -0.376691 -0.923027 -0.078263
vn -0.311869 -0.923951 -0.221479
vn 0.000000 -1.000000 0.000000
vn -0.376691 -0.923027 0.078263
vn -0.376691 -0.923027 -0.078263
vn 0.000000 -1.000000 0.000000
vn -0.311869 -0.923951 0.221479
vn -0.376691 -0.923027 0.078263
vn 0.000000 -1.000000 0.000000
vn -0.193005 -0.925191 0.326758
vn -0.311869 -0.923951 0.221479
vn 0.000000 -1.000000 0.000000
vn -0.040381 -0.925926 0.375539
vn -0.193005 -0.925191 0.326758
vn 0.000000 -1.000000 0.000000
vn 0.119345 -0.925666 0.359025
vn -0.040381 -0.925926 0.375539
vn 0.000000 -1.000000 0.000000
vn 0.258121 -0.924584 0.280210
vn 0.119345 -0.925666 0.359025
vn 0.000000 -1.000000 0.000000
vn 0.351954 -0.923400 0.153168
vn 0.258121 -0.924584 0.280210
vn 0.000000 -1.000000 0.000000
vn 0.385051 -0.922895 0.000000
vn 0.351954 -0.923400 0.153168
vn 0.000000 -1.000000 0.000000
vn 0.351954 -0.923400 -0.153168
vn 0.385051 -0.922895 0.000000
vn 0.000000 -1.000000 0.000000
vn 0.669226 -0.103275 -0.735847
vn 0.317881 -0.103116 -0.942507
vn 0.508574 0.000000 -0.861019
vn 0.508574 0.000000 -0.861018
vn 0.317881 -0.103116 -0.942507
vn -0.106316 -0.105429 -0.988727
vn 0.106912 0.000000 -0.994268
vn 0.106912 0.000000 -0.994268
vn -0.106316 -0.105429 -0.988727
vn -0.487713 -0.114671 -0.865440
vn -0.315441 0.000000 -0.948945
vn -0.315441 0.000000 -0.948945
vn -0.487713 -0.114671 -0.865440
vn -0.808893 -0.125304 -0.574448
vn -0.677521 0.000000 -0.735503
vn -0.677521 0.000000 -0.735503
vn -0.808893 -0.125304 -0.574448
vn -0.976637 -0.112798 -0.182914
vn -0.916933 0.000001 -0.399042
vn -0.916933 0.000001 -0.399042
vn -0.976637 -0.112798 -0.182914
vn -0.973906 -0.103320 0.202070
vn -1.000000 0.000001 -0.000000
vn -1.000000 0.000001 -0.000000
vn -0.973906 -0.103320 0.202070
vn -0.809101 -0.102532 0.578657
vn -0.916933 0.000001 0.399042
vn -0.916933 0.000001 0.399042
vn -0.809101 -0.102532 0.578657
vn -0.512296 -0.105457 0.852310
vn -0.677522 0.000000 0.735503
vn -0.677522 0.000000 0.735503
vn -0.512296 -0.105457 0.852310
vn -0.106264 -0.109938 0.988242
vn -0.315440 0.000000 0.948946
vn -0.315440 0.000000 0.948946
vn -0.106264 -0.109938 0.988242
vn 0.346720 -0.088362 0.933797
vn 0.106911 0.000000 0.994269
vn 0.106911 0.000000 0.994269
vn 0.346720 -0.088362 0.933797
vn 0.681989 -0.065617 0.728413
vn 0.516167 0.019095 0.856275
vn 0.516167 0.019095 0.856275
vn 0.681989 -0.065617 0.728413
vn 0.893202 -0.085171 0.441516
vn 0.805945 0.027471 0.591353
vn 0.805945 0.027471 0.591353
vn 0.893202 -0.085171 0.441516
vn 0.990349 -0.134785 0.032267
vn 0.974765 -0.032146 0.220908
vn 0.974765 -0.032145 0.220908
vn 0.990349 -0.134785 0.032267
vn 0.896733 -0.127535 -0.423799
vn 0.973867 -0.067774 -0.216771
vn 0.973867 -0.067774 -0.216771
vn 0.896733 -0.127535 -0.423799
vn 0.669226 -0.103275 -0.735847
vn 0.815319 0.000000 -0.579012
vn 0.815319 0.000000 -0.579012
s off
g polySurface1 crackedEgg:pSphere1
usemtl crackedEgg:initialShadingGroup
f 1/1/1 2/2/2 17/3/3 16/4/4
f 2/2/5 3/5/6 18/6/7 17/3/8
f 3/5/9 4/7/10 19/8/11 18/6/12
f 4/7/13 5/9/14 20/10/15 19/8/16
f 5/9/17 6/11/18 21/12/19 20/10/20
f 6/11/21 7/13/22 22/14/23 21/12/24
f 7/13/25 8/15/26 23/16/27 22/14/28
f 8/15/29 9/17/30 24/18/31 23/16/32
f 9/17/33 10/19/34 25/20/35 24/18/36
f 10/19/37 11/21/38 26/22/39 25/20/40
f 11/21/41 12/23/42 27/24/43 26/22/44
f 12/23/45 13/25/46 28/26/47 27/24/48
f 13/25/49 14/27/50 29/28/51 28/26/52
f 14/27/53 15/29/54 30/30/55 29/28/56
f 15/29/57 1/31/58 16/32/59 30/30/60
f 16/4/61 17/3/62 32/33/63 31/34/64
f 17/3/65 18/6/66 33/35/67 32/33/68
f 18/6/69 19/8/70 34/36/71 33/35/72
f 19/8/73 20/10/74 35/37/75 34/36/76
f 20/10/77 21/12/78 36/38/79 35/37/80
f 21/12/81 22/14/82 37/39/83 36/38/84
f 22/14/85 23/16/86 38/40/87 37/39/88
f 23/16/89 24/18/90 39/41/91 38/40/92
f 24/18/93 25/20/94 40/42/95 39/41/96
f 25/20/97 26/22/98 41/43/99 40/42/100
f 26/22/101 27/24/102 42/44/103 41/43/104
f 27/24/105 28/26/106 43/45/107 42/44/108
f 28/26/109 29/28/110 44/46/111 43/45/112
f 29/28/113 30/30/114 45/47/115 44/46/116
f 30/30/117 16/32/118 31/48/119 45/47/120
f 31/34/121 32/33/122 47/49/123 46/50/124
f 32/33/125 33/35/126 48/51/127 47/49/128
f 33/35/129 34/36/130 49/52/131 48/51/132
f 34/36/133 35/37/134 50/53/135 49/52/136
f 35/37/137 36/38/138 51/54/139 50/53/140
f 36/38/141 37/39/142 52/55/143 51/54/144
f 37/39/145 38/40/146 53/56/147 52/55/148
f 38/40/149 39/41/150 54/57/151 53/56/152
f 39/41/153 40/42/154 55/58/155 54/57/156
f 40/42/157 41/43/158 56/59/159 55/58/160
f 41/43/161 42/44/162 57/60/163 56/59/164
f 42/44/165 43/45/166 58/61/167 57/60/168
f 43/45/169 44/46/170 59/62/171 58/61/172
f 44/46/173 45/47/174 60/63/175 59/62/176
f 45/47/177 31/48/178 46/64/179 60/63/180
f 46/50/181 47/49/182 62/65/183 61/66/184
f 47/49/185 48/51/186 63/67/187 62/65/188
f 48/51/189 49/52/190 64/68/191 63/67/192
f 49/52/193 50/53/194 65/69/195 64/68/196
f 50/53/197 51/54/198 66/70/199 65/69/200
f 51/54/201 52/55/202 67/71/203 66/70/204
f 52/55/205 53/56/206 68/72/207 67/71/208
f 53/56/209 54/57/210 69/73/211 68/72/212
f 54/57/213 55/58/214 70/74/215 69/73/216
f 55/58/217 56/59/218 71/75/219 70/74/220
f 56/59/221 57/60/222 72/76/223 71/75/224
f 57/60/225 58/61/226 73/77/227 72/76/228
f 58/61/229 59/62/230 74/78/231 73/77/232
f 59/62/233 60/63/234 75/79/235 74/78/236
f 60/63/237 46/64/238 61/80/239 75/79/240
f 61/66/241 62/65/242 77/81/243 76/82/244
f 62/65/245 63/67/246 78/83/247 77/81/248
f 63/67/249 64/68/250 79/84/251 78/83/252
f 64/68/253 65/69/254 80/85/255 79/84/256
f 65/69/257 66/70/258 81/86/259 80/85/260
f 66/70/261 67/71/262 82/87/263 81/86/264
f 67/71/265 68/72/266 83/88/267 82/87/268
f 68/72/269 69/73/270 84/89/271 83/88/272
f 69/73/273 70/74/274 85/90/275 84/89/276
f 70/74/277 71/75/278 86/91/279 85/90/280
f 71/75/281 72/76/282 87/92/283 86/91/284
f 72/76/285 73/77/286 88/93/287 87/92/288
f 73/77/289 74/78/290 89/94/291 88/93/292
f 74/78/293 75/79/294 90/95/295 89/94/296
f 75/79/297 61/80/298 76/96/299 90/95/300
f 2/2/301 1/1/302 91/97/303
f 3/5/304 2/2/305 91/98/306
f 4/7/307 3/5/308 91/99/309
f 5/9/310 4/7/311 91/100/312
f 6/11/313 5/9/314 91/101/315
f 7/13/316 6/11/317 91/102/318
f 8/15/319 7/13/320 91/103/321
f 9/17/322 8/15/323 91/104/324
f 10/19/325 9/17/326 91/105/327
f 11/21/328 10/19/329 91/106/330
f 12/23/331 11/21/332 91/107/333
f 13/25/334 12/23/335 91/108/336
f 14/27/337 13/25/338 91/109/339
f 15/29/340 14/27/341 91/110/342
f 1/31/343 15/29/344 91/111/345
f 77/81/346 78/83/347 93/112/348 92/113/349
f 78/83/350 79/84/351 94/114/352 93/112/353
f 79/84/354 80/85/355 95/115/356 94/114/357
f 80/85/358 81/86/359 96/116/360 95/115/361
f 81/86/362 82/87/363 97/117/364 96/116/365
f 82/87/366 83/88/367 98/118/368 97/117/369
f 83/88/370 84/89/371 99/119/372 98/118/373
f 84/89/374 85/90/375 100/120/376 99/119/377
f 85/90/378 86/91/379 101/121/380 100/120/381
f 86/91/382 87/92/383 102/122/384 101/121/385
f 87/92/386 88/93/387 103/123/388 102/122/389
f 88/93/390 89/94/391 104/124/392 103/123/393
f 89/94/394 90/95/395 105/125/396 104/124/397
f 90/95/398 76/96/399 106/126/400 105/125/401
f 76/82/402 77/81/403 92/113/404 106/127/405
