# This file uses centimeters as units for non-parametric coordinates.

mtllib plate.mtl
g default
v 8.484400 2.165004 -2.756749
v 7.217262 2.165004 -5.243647
v 5.243647 2.165004 -7.217262
v 2.756748 2.165004 -8.484399
v 0.000000 2.165004 -8.921025
v -2.756748 2.165004 -8.484399
v -5.243646 2.165004 -7.217261
v -7.217260 2.165004 -5.243646
v -8.484398 2.165004 -2.756748
v -8.921024 2.165004 0.000000
v -8.484398 2.165004 2.756748
v -7.217259 2.165004 5.243645
v -5.243645 2.165004 7.217259
v -2.756748 2.165004 8.484396
v -0.000000 2.165004 8.921022
v 2.756747 2.165004 8.484396
v 5.243644 2.165004 7.217258
v 7.217257 2.165004 5.243645
v 8.484395 2.165004 2.756747
v 8.921021 2.165004 0.000000
v 8.484400 2.396144 -2.756749
v 7.217262 2.396144 -5.243647
v 5.243647 2.396144 -7.217262
v 2.756748 2.396144 -8.484399
v 0.000000 2.396144 -8.921025
v -2.756748 2.396144 -8.484399
v -5.243646 2.396144 -7.217261
v -7.217260 2.396144 -5.243646
v -8.484398 2.396144 -2.756748
v -8.921024 2.396144 0.000000
v -8.484398 2.396144 2.756748
v -7.217259 2.396144 5.243645
v -5.243645 2.396144 7.217259
v -2.756748 2.396144 8.484396
v -0.000000 2.396144 8.921022
v 2.756747 2.396144 8.484396
v 5.243644 2.396144 7.217258
v 7.217257 2.396144 5.243645
v 8.484395 2.396144 2.756747
v 8.921021 2.396144 0.000000
v 0.000000 2.008979 0.000000
v 8.050522 2.249408 -2.615773
v 6.848183 2.249408 -4.975496
v -0.000000 2.093383 -0.000000
v 4.975496 2.249408 -6.848182
v 2.615772 2.249408 -8.050521
v -0.000000 2.249408 -8.464818
v -2.615773 2.249408 -8.050521
v -4.975495 2.249408 -6.848182
v -6.848181 2.249408 -4.975494
v -8.050519 2.249408 -2.615773
v -8.464818 2.249408 0.000000
v -8.050519 2.249408 2.615772
v -6.848180 2.249408 4.975494
v -4.975494 2.249408 6.848180
v -2.615772 2.249408 8.050517
v -0.000000 2.249408 8.464815
v 2.615771 2.249408 8.050518
v 4.975493 2.249408 6.848180
v 6.848178 2.249408 4.975493
v 8.050517 2.249408 2.615772
v 8.464814 2.249408 -0.000000
vt 0.648603 0.107966
vt 0.626409 0.064408
vt 0.591842 0.029841
vt 0.548284 0.007647
vt 0.500000 -0.000000
vt 0.451716 0.007647
vt 0.408159 0.029841
vt 0.373591 0.064409
vt 0.351397 0.107966
vt 0.343750 0.156250
vt 0.351397 0.204534
vt 0.373591 0.248091
vt 0.408159 0.282659
vt 0.451716 0.304853
vt 0.500000 0.312500
vt 0.548284 0.304853
vt 0.591841 0.282659
vt 0.626409 0.248091
vt 0.648603 0.204534
vt 0.656250 0.156250
vt 0.375000 0.312500
vt 0.387500 0.312500
vt 0.400000 0.312500
vt 0.412500 0.312500
vt 0.425000 0.312500
vt 0.437500 0.312500
vt 0.450000 0.312500
vt 0.462500 0.312500
vt 0.475000 0.312500
vt 0.487500 0.312500
vt 0.500000 0.312500
vt 0.512500 0.312500
vt 0.525000 0.312500
vt 0.537500 0.312500
vt 0.550000 0.312500
vt 0.562500 0.312500
vt 0.575000 0.312500
vt 0.587500 0.312500
vt 0.600000 0.312500
vt 0.612500 0.312500
vt 0.625000 0.312500
vt 0.375000 0.688440
vt 0.387500 0.688440
vt 0.400000 0.688440
vt 0.412500 0.688440
vt 0.425000 0.688440
vt 0.437500 0.688440
vt 0.450000 0.688440
vt 0.462500 0.688440
vt 0.475000 0.688440
vt 0.487500 0.688440
vt 0.500000 0.688440
vt 0.512500 0.688440
vt 0.525000 0.688440
vt 0.537500 0.688440
vt 0.550000 0.688440
vt 0.562500 0.688440
vt 0.575000 0.688440
vt 0.587500 0.688440
vt 0.600000 0.688440
vt 0.612500 0.688440
vt 0.625000 0.688440
vt 0.648603 0.795466
vt 0.626409 0.751908
vt 0.591842 0.717341
vt 0.548284 0.695147
vt 0.500000 0.687500
vt 0.451716 0.695147
vt 0.408159 0.717341
vt 0.373591 0.751909
vt 0.351397 0.795466
vt 0.343750 0.843750
vt 0.351397 0.892034
vt 0.373591 0.935591
vt 0.408159 0.970159
vt 0.451716 0.992353
vt 0.500000 1.000000
vt 0.548284 0.992353
vt 0.591841 0.970159
vt 0.626409 0.935591
vt 0.648603 0.892034
vt 0.656250 0.843750
vt 0.500000 0.150000
vt 0.500000 0.837500
vt 0.648603 0.892034
vt 0.626409 0.935591
vt 0.591841 0.970159
vt 0.548284 0.992353
vt 0.500000 1.000000
vt 0.451716 0.992353
vt 0.408159 0.970159
vt 0.373591 0.935591
vt 0.351397 0.892034
vt 0.343750 0.843750
vt 0.351397 0.795466
vt 0.373591 0.751909
vt 0.408159 0.717341
vt 0.451716 0.695147
vt 0.500000 0.687500
vt 0.548284 0.695147
vt 0.591842 0.717341
vt 0.626409 0.751908
vt 0.648603 0.795466
vt 0.656250 0.843750
vn 0.951057 0.000000 -0.309016
vn 0.809017 0.000000 -0.587785
vn 0.809017 0.000000 -0.587785
vn 0.951057 0.000000 -0.309016
vn 0.587785 0.000000 -0.809017
vn 0.587785 0.000000 -0.809017
vn 0.309017 0.000000 -0.951057
vn 0.309017 0.000000 -0.951057
vn 0.000000 0.000000 -1.000000
vn 0.000000 0.000000 -1.000000
vn -0.309017 0.000000 -0.951057
vn -0.309017 0.000000 -0.951057
vn -0.587785 0.000000 -0.809017
vn -0.587785 0.000000 -0.809017
vn -0.809017 0.000000 -0.587785
vn -0.809017 0.000000 -0.587785
vn -0.951056 0.000000 -0.309017
vn -0.951056 0.000000 -0.309017
vn -1.000000 0.000000 0.000000
vn -1.000000 0.000000 0.000000
vn -0.951056 0.000000 0.309017
vn -0.951056 0.000000 0.309017
vn -0.809017 0.000000 0.587785
vn -0.809017 0.000000 0.587785
vn -0.587785 0.000000 0.809017
vn -0.587785 0.000000 0.809017
vn -0.309017 0.000000 0.951057
vn -0.309017 0.000000 0.951057
vn 0.000000 0.000000 1.000000
vn 0.000000 0.000000 1.000000
vn 0.309017 0.000000 0.951057
vn 0.309017 0.000000 0.951057
vn 0.587785 0.000000 0.809017
vn 0.587785 0.000000 0.809017
vn 0.809017 0.000000 0.587785
vn 0.809017 0.000000 0.587785
vn 0.951057 0.000000 0.309017
vn 0.951057 0.000000 0.309017
vn 1.000000 0.000000 0.000001
vn 1.000000 0.000000 0.000001
vn 0.014147 -0.999847 -0.010279
vn 0.016631 -0.999847 -0.005404
vn 0.000000 -1.000000 0.000000
vn 0.010279 -0.999847 -0.014147
vn 0.005404 -0.999847 -0.016631
vn 0.000000 -0.999847 -0.017487
vn -0.005404 -0.999847 -0.016631
vn -0.010279 -0.999847 -0.014147
vn -0.014147 -0.999847 -0.010279
vn -0.016631 -0.999847 -0.005404
vn -0.017487 -0.999847 0.000000
vn -0.016631 -0.999847 0.005404
vn -0.014147 -0.999847 0.010279
vn -0.010279 -0.999847 0.014147
vn -0.005404 -0.999847 0.016631
vn 0.000000 -0.999847 0.017487
vn 0.005404 -0.999847 0.016631
vn 0.010279 -0.999847 0.014147
vn 0.014147 -0.999847 0.010279
vn 0.016631 -0.999847 0.005404
vn 0.017487 -0.999847 0.000000
vn -0.017527 0.999830 0.005695
vn -0.014909 0.999830 0.010832
vn -0.000000 1.000000 0.000000
vn -0.010832 0.999830 0.014909
vn -0.005695 0.999830 0.017527
vn -0.000000 0.999830 0.018429
vn 0.005695 0.999830 0.017527
vn 0.010832 0.999830 0.014909
vn 0.014909 0.999830 0.010832
vn 0.017527 0.999830 0.005695
vn 0.018429 0.999830 0.000000
vn 0.017527 0.999830 -0.005695
vn 0.014909 0.999830 -0.010832
vn 0.010832 0.999830 -0.014909
vn 0.005695 0.999830 -0.017527
vn 0.000000 0.999830 -0.018429
vn -0.005695 0.999830 -0.017527
vn -0.010832 0.999830 -0.014909
vn -0.014909 0.999830 -0.010832
vn -0.017527 0.999830 -0.005695
vn -0.018429 0.999830 0.000000
vn -0.275897 0.950852 0.140577
vn -0.275897 0.950852 0.140577
vn -0.275897 0.950852 0.140577
vn -0.275897 0.950852 0.140577
vn -0.218953 0.950852 0.218953
vn -0.218953 0.950852 0.218953
vn -0.218953 0.950852 0.218953
vn -0.218953 0.950852 0.218953
vn -0.140577 0.950852 0.275897
vn -0.140577 0.950852 0.275897
vn -0.140577 0.950852 0.275897
vn -0.140577 0.950852 0.275897
vn -0.048439 0.950852 0.305834
vn -0.048439 0.950852 0.305834
vn -0.048439 0.950852 0.305834
vn -0.048439 0.950852 0.305834
vn 0.048439 0.950852 0.305835
vn 0.048439 0.950852 0.305835
vn 0.048439 0.950852 0.305834
vn 0.048439 0.950852 0.305834
vn 0.140577 0.950852 0.275897
vn 0.140577 0.950852 0.275897
vn 0.140577 0.950852 0.275897
vn 0.140577 0.950852 0.275897
vn 0.218954 0.950852 0.218954
vn 0.218954 0.950852 0.218954
vn 0.218954 0.950852 0.218954
vn 0.218954 0.950852 0.218954
vn 0.275897 0.950852 0.140577
vn 0.275897 0.950852 0.140577
vn 0.275897 0.950852 0.140577
vn 0.275897 0.950852 0.140577
vn 0.305835 0.950852 0.048439
vn 0.305835 0.950852 0.048439
vn 0.305835 0.950852 0.048439
vn 0.305835 0.950852 0.048439
vn 0.305834 0.950852 -0.048439
vn 0.305834 0.950852 -0.048439
vn 0.305834 0.950852 -0.048439
vn 0.305834 0.950852 -0.048439
vn 0.275897 0.950852 -0.140577
vn 0.275897 0.950852 -0.140577
vn 0.275897 0.950852 -0.140577
vn 0.275897 0.950852 -0.140577
vn 0.218953 0.950852 -0.218953
vn 0.218953 0.950852 -0.218953
vn 0.218953 0.950852 -0.218953
vn 0.218953 0.950852 -0.218953
vn 0.140576 0.950852 -0.275897
vn 0.140577 0.950852 -0.275897
vn 0.140576 0.950852 -0.275897
vn 0.140576 0.950852 -0.275897
vn 0.048439 0.950852 -0.305834
vn 0.048439 0.950852 -0.305834
vn 0.048439 0.950852 -0.305834
vn 0.048439 0.950852 -0.305834
vn -0.048439 0.950852 -0.305834
vn -0.048439 0.950852 -0.305834
vn -0.048439 0.950852 -0.305834
vn -0.048439 0.950852 -0.305834
vn -0.140577 0.950852 -0.275897
vn -0.140577 0.950852 -0.275897
vn -0.140577 0.950852 -0.275897
vn -0.140577 0.950852 -0.275897
vn -0.218953 0.950852 -0.218953
vn -0.218953 0.950852 -0.218953
vn -0.218953 0.950852 -0.218953
vn -0.218953 0.950852 -0.218953
vn -0.275897 0.950852 -0.140577
vn -0.275897 0.950852 -0.140577
vn -0.275897 0.950852 -0.140577
vn -0.275897 0.950852 -0.140577
vn -0.305835 0.950852 -0.048439
vn -0.305835 0.950852 -0.048439
vn -0.305835 0.950852 -0.048439
vn -0.305835 0.950852 -0.048439
vn -0.305834 0.950852 0.048439
vn -0.305834 0.950852 0.048439
vn -0.305834 0.950852 0.048439
vn -0.305834 0.950852 0.048439
s 1
g pCylinder2
usemtl initialShadingGroup
f 1/21/1 2/22/2 22/43/3 21/42/4
f 2/22/2 3/23/5 23/44/6 22/43/3
f 3/23/5 4/24/7 24/45/8 23/44/6
f 4/24/7 5/25/9 25/46/10 24/45/8
f 5/25/9 6/26/11 26/47/12 25/46/10
f 6/26/11 7/27/13 27/48/14 26/47/12
f 7/27/13 8/28/15 28/49/16 27/48/14
f 8/28/15 9/29/17 29/50/18 28/49/16
f 9/29/17 10/30/19 30/51/20 29/50/18
f 10/30/19 11/31/21 31/52/22 30/51/20
f 11/31/21 12/32/23 32/53/24 31/52/22
f 12/32/23 13/33/25 33/54/26 32/53/24
f 13/33/25 14/34/27 34/55/28 33/54/26
f 14/34/27 15/35/29 35/56/30 34/55/28
f 15/35/29 16/36/31 36/57/32 35/56/30
f 16/36/31 17/37/33 37/58/34 36/57/32
f 17/37/33 18/38/35 38/59/36 37/58/34
f 18/38/35 19/39/37 39/60/38 38/59/36
f 19/39/37 20/40/39 40/61/40 39/60/38
f 20/40/39 1/41/1 21/62/4 40/61/40
s 2
f 2/2/41 1/1/42 41/83/43
f 3/3/44 2/2/41 41/83/43
f 4/4/45 3/3/44 41/83/43
f 5/5/46 4/4/45 41/83/43
f 6/6/47 5/5/46 41/83/43
f 7/7/48 6/6/47 41/83/43
f 8/8/49 7/7/48 41/83/43
f 9/9/50 8/8/49 41/83/43
f 10/10/51 9/9/50 41/83/43
f 11/11/52 10/10/51 41/83/43
f 12/12/53 11/11/52 41/83/43
f 13/13/54 12/12/53 41/83/43
f 14/14/55 13/13/54 41/83/43
f 15/15/56 14/14/55 41/83/43
f 16/16/57 15/15/56 41/83/43
f 17/17/58 16/16/57 41/83/43
f 18/18/59 17/17/58 41/83/43
f 19/19/60 18/18/59 41/83/43
f 20/20/61 19/19/60 41/83/43
f 1/1/42 20/20/61 41/83/43
s 3
f 42/85/62 43/86/63 44/84/64
f 43/86/63 45/87/65 44/84/64
f 45/87/65 46/88/66 44/84/64
f 46/88/66 47/89/67 44/84/64
f 47/89/67 48/90/68 44/84/64
f 48/90/68 49/91/69 44/84/64
f 49/91/69 50/92/70 44/84/64
f 50/92/70 51/93/71 44/84/64
f 51/93/71 52/94/72 44/84/64
f 52/94/72 53/95/73 44/84/64
f 53/95/73 54/96/74 44/84/64
f 54/96/74 55/97/75 44/84/64
f 55/97/75 56/98/76 44/84/64
f 56/98/76 57/99/77 44/84/64
f 57/99/77 58/100/78 44/84/64
f 58/100/78 59/101/79 44/84/64
f 59/101/79 60/102/80 44/84/64
f 60/102/80 61/103/81 44/84/64
f 61/103/81 62/104/82 44/84/64
f 62/104/82 42/85/62 44/84/64
s off
f 21/81/83 22/80/84 43/86/85 42/85/86
f 22/80/87 23/79/88 45/87/89 43/86/90
f 23/79/91 24/78/92 46/88/93 45/87/94
f 24/78/95 25/77/96 47/89/97 46/88/98
f 25/77/99 26/76/100 48/90/101 47/89/102
f 26/76/103 27/75/104 49/91/105 48/90/106
f 27/75/107 28/74/108 50/92/109 49/91/110
f 28/74/111 29/73/112 51/93/113 50/92/114
f 29/73/115 30/72/116 52/94/117 51/93/118
f 30/72/119 31/71/120 53/95/121 52/94/122
f 31/71/123 32/70/124 54/96/125 53/95/126
f 32/70/127 33/69/128 55/97/129 54/96/130
f 33/69/131 34/68/132 56/98/133 55/97/134
f 34/68/135 35/67/136 57/99/137 56/98/138
f 35/67/139 36/66/140 58/100/141 57/99/142
f 36/66/143 37/65/144 59/101/145 58/100/146
f 37/65/147 38/64/148 60/102/149 59/101/150
f 38/64/151 39/63/152 61/103/153 60/102/154
f 39/63/155 40/82/156 62/104/157 61/103/158
f 40/82/159 21/81/160 42/85/161 62/104/162
