# This file uses centimeters as units for non-parametric coordinates.

mtllib spatula.mtl
g default
v -0.411574 4.135329 0.627957
v 10.996295 7.007483 0.759884
v 10.896956 7.412310 0.758912
v -0.510912 4.540154 0.626905
v -0.507793 4.540403 0.427759
v -0.408455 4.135577 0.428811
v 11.294232 7.007732 0.575921
v 11.194894 7.412558 0.574950
v -1.633069 3.294682 1.985512
v -0.391557 4.136921 -0.649693
v 11.311130 7.009075 -0.420354
v 11.211791 7.413901 -0.421326
v -0.490895 4.541747 -0.650745
v -1.633069 3.294682 -2.021864
v -1.633069 3.258712 1.985512
v -1.633069 3.258712 -2.021864
v -0.388986 4.137125 -0.813836
v 11.018884 7.009280 -0.571982
v 10.919545 7.414106 -0.572954
v -0.488324 4.541951 -0.814888
v -6.127426 3.294682 -1.980759
v -5.043166 3.294682 -1.141356
v -2.744477 3.294682 -1.141356
v -2.744477 3.294682 -0.870283
v -5.043166 3.294682 -0.870283
v -5.043166 3.294682 -0.133428
v -2.744477 3.294682 -0.133428
v -2.744477 3.294682 0.137644
v -5.043166 3.294682 0.137644
v -5.043166 3.294682 0.872171
v -2.744477 3.294682 0.872171
v -2.744477 3.294682 1.143243
v -5.043166 3.294682 1.143243
v -6.127426 3.294682 1.944408
v -6.127426 3.258712 1.944408
v -6.127426 3.258712 -1.980759
v -5.043166 3.258712 -1.141356
v -5.043166 3.258712 -0.870283
v -5.043166 3.258712 -0.133428
v -5.043166 3.258712 0.137644
v -5.043166 3.258712 0.872171
v -5.043166 3.258712 1.143243
v -2.744477 3.258712 1.143243
v -2.744477 3.258712 0.872171
v -2.744477 3.258712 0.137644
v -2.744477 3.258712 -0.133428
v -2.744477 3.258712 -0.870283
v -2.744477 3.258712 -1.141356
v 9.267590 6.510857 0.530247
v 9.270709 6.511106 0.401433
v 9.287607 6.512448 -0.296179
v 9.290178 6.512653 -0.402352
v 9.190840 6.917479 -0.403032
v 9.188269 6.917274 -0.296859
v 9.171371 6.915931 0.400752
v 9.168251 6.915683 0.529566
vt 0.375000 0.000000
vt 0.625000 0.000000
vt 0.625000 0.250000
vt 0.375000 0.250000
vt 0.340469 0.250000
vt 0.340469 0.000000
vt 0.375000 0.965469
vt 0.625000 0.965469
vt 0.625000 1.000000
vt 0.375000 1.000000
vt 0.659531 0.000000
vt 0.659531 0.250000
vt 0.625000 0.284531
vt 0.375000 0.284531
vt 0.340469 0.250000
vt 0.375000 0.813772
vt 0.625000 0.813772
vt 0.811228 0.000000
vt 0.811228 0.250000
vt 0.625000 0.436228
vt 0.375000 0.436228
vt 0.188772 0.250000
vt 0.340469 0.000000
vt 0.188772 0.000000
vt 0.188772 0.000000
vt 0.375000 0.750000
vt 0.625000 0.750000
vt 0.875000 0.000000
vt 0.875000 0.250000
vt 0.188772 0.250000
vt 0.625000 0.500000
vt 0.375000 0.500000
vt 0.188772 0.250000
vt 0.221395 0.250000
vt 0.221920 0.250000
vt 0.232229 0.250000
vt 0.231823 0.250000
vt 0.260184 0.250000
vt 0.260240 0.250000
vt 0.270543 0.250000
vt 0.270619 0.250000
vt 0.298889 0.250000
vt 0.298466 0.250000
vt 0.308775 0.250000
vt 0.309316 0.250000
vt 0.340469 0.250000
vt 0.340469 0.000000
vt 0.125000 0.000000
vt 0.125000 0.250000
vt 0.188772 0.000000
vt 0.221395 0.000000
vt 0.231823 0.000000
vt 0.260184 0.000000
vt 0.270618 0.000000
vt 0.298889 0.000000
vt 0.309316 0.000000
vt 0.308775 0.000000
vt 0.298466 0.000000
vt 0.270543 0.000000
vt 0.260240 0.000000
vt 0.232229 0.000000
vt 0.221920 0.000000
vt 0.625000 0.047098
vt 0.375000 0.047098
vt 0.375000 0.191008
vt 0.625000 0.191008
vt 0.875000 0.047098
vt 0.875000 0.191008
vt 0.125000 0.047098
vt 0.125000 0.191008
vt 0.625000 0.558992
vt 0.375000 0.558992
vt 0.375000 0.702902
vt 0.625000 0.702902
vt 0.625000 0.047098
vt 0.375000 0.047098
vt 0.375000 0.191008
vt 0.625000 0.191008
vt 0.875000 0.047098
vt 0.875000 0.191008
vt 0.125000 0.047098
vt 0.125000 0.191008
vt 0.625000 0.558992
vt 0.375000 0.558992
vt 0.375000 0.702902
vt 0.625000 0.702902
vt 0.625000 0.047098
vt 0.375000 0.047098
vt 0.375000 0.191008
vt 0.625000 0.191008
vt 0.875000 0.047098
vt 0.875000 0.191008
vt 0.125000 0.047098
vt 0.125000 0.191008
vt 0.625000 0.558992
vt 0.375000 0.558992
vt 0.375000 0.702902
vt 0.625000 0.702902
vt 0.581772 0.000000
vt 0.581772 1.000000
vt 0.581772 0.965469
vt 0.581772 0.813772
vt 0.581772 0.750000
vt 0.581772 0.500000
vt 0.581772 0.436228
vt 0.581772 0.284531
vt 0.581772 0.250000
vn -0.011821 -0.000777 0.999930
vn -0.010971 -0.000567 0.999940
vn -0.123554 -0.028294 0.991934
vn -0.123554 -0.028294 0.991934
vn -0.971062 -0.238324 -0.015508
vn -0.971062 -0.238324 -0.015508
vn -0.971062 -0.238324 -0.015508
vn -0.971062 -0.238324 -0.015508
vn 0.237291 -0.970547 0.041603
vn 0.238182 -0.971182 0.008609
vn 0.237880 -0.971080 0.020409
vn 0.227776 -0.949058 0.217732
vn 0.520849 0.129834 0.843718
vn 0.945850 0.232643 0.226374
vn 0.933782 0.229797 0.274307
vn 0.520849 0.129834 0.843718
vn -0.238183 0.971182 -0.008610
vn -0.237296 0.970546 -0.041605
vn -0.227802 0.949045 -0.217762
vn -0.237883 0.971080 -0.020404
vn 0.729499 0.165984 0.663537
vn 0.729499 0.165984 0.663537
vn 0.615815 0.140561 0.775251
vn 0.535372 0.122534 0.835681
vn 0.238257 -0.971199 -0.002510
vn 0.238184 -0.971144 -0.012127
vn 0.951967 0.233124 -0.198523
vn 0.939686 0.229979 -0.253178
vn -0.238256 0.971199 0.002510
vn -0.238182 0.971145 0.012132
vn -0.155863 0.987779 -0.000480
vn -0.167525 0.985868 -0.000516
vn -0.446777 0.894641 -0.002885
vn -0.445464 0.895295 -0.002887
vn 0.103594 -0.994620 0.000306
vn 0.366265 -0.930507 0.002625
vn 0.367217 -0.930132 0.002621
vn 0.110837 -0.993839 0.000327
vn 0.237663 -0.970331 -0.044433
vn 0.228301 -0.938778 -0.258019
vn 0.457796 0.110219 -0.882199
vn 0.457795 0.110219 -0.882199
vn -0.237657 0.970332 0.044435
vn -0.228269 0.938795 0.257986
vn 0.000000 1.000000 0.000000
vn 0.000000 1.000000 0.000000
vn 0.000000 1.000000 0.000000
vn 0.000000 1.000000 0.000000
vn 0.000000 1.000000 0.000000
vn 0.000000 1.000000 0.000000
vn 0.000000 1.000000 0.000000
vn 0.000000 1.000000 0.000000
vn 0.000000 1.000000 0.000000
vn 0.000000 1.000000 0.000000
vn 0.000000 1.000000 0.000000
vn 0.000000 1.000000 0.000000
vn 0.000000 1.000000 0.000000
vn 0.000000 1.000000 0.000000
vn -0.009145 0.000000 0.999958
vn -0.009145 0.000000 0.999958
vn 0.684456 0.152548 -0.712916
vn 0.483329 0.108460 -0.868694
vn 0.568141 0.127071 -0.813061
vn 0.684456 0.152548 -0.712916
vn -0.971062 -0.238324 -0.015511
vn -0.971062 -0.238324 -0.015511
vn -0.971062 -0.238324 -0.015511
vn -0.971062 -0.238324 -0.015511
vn 0.020895 0.003003 -0.999777
vn 0.020047 0.002795 -0.999795
vn -0.090791 -0.024311 -0.995573
vn -0.090791 -0.024311 -0.995573
vn -0.009145 0.000000 -0.999958
vn -0.009145 0.000000 -0.999958
vn -1.000000 0.000000 0.000000
vn -1.000000 0.000000 0.000000
vn -1.000000 0.000000 0.000000
vn -1.000000 0.000000 0.000000
vn -0.000000 -1.000000 -0.000000
vn -0.000000 -1.000000 -0.000000
vn -0.000000 -1.000000 -0.000000
vn -0.000000 -1.000000 -0.000000
vn -0.000000 -1.000000 -0.000000
vn -0.000000 -1.000000 -0.000000
vn -0.000000 -1.000000 -0.000000
vn -0.000000 -1.000000 -0.000000
vn -0.000000 -1.000000 -0.000000
vn -0.000000 -1.000000 0.000000
vn -0.000000 -1.000000 0.000000
vn -0.000000 -1.000000 0.000000
vn -0.000000 -1.000000 0.000000
vn -0.000000 -1.000000 0.000000
vn 0.000000 0.000000 -1.000000
vn 0.000000 0.000000 -1.000000
vn 0.000000 0.000000 -1.000000
vn 0.000000 0.000000 -1.000000
vn -1.000000 0.000000 0.000000
vn -1.000000 0.000000 0.000000
vn -1.000000 0.000000 0.000000
vn -1.000000 0.000000 0.000000
vn 1.000000 0.000000 0.000000
vn 1.000000 0.000000 0.000000
vn 1.000000 0.000000 0.000000
vn 1.000000 0.000000 0.000000
vn 0.000000 0.000000 1.000000
vn 0.000000 0.000000 1.000000
vn 0.000000 0.000000 1.000000
vn 0.000000 0.000000 1.000000
vn 0.000000 0.000000 -1.000000
vn 0.000000 0.000000 -1.000000
vn 0.000000 0.000000 -1.000000
vn 0.000000 0.000000 -1.000000
vn -1.000000 0.000000 0.000000
vn -1.000000 0.000000 0.000000
vn -1.000000 0.000000 0.000000
vn -1.000000 0.000000 0.000000
vn 1.000000 0.000000 0.000000
vn 1.000000 0.000000 0.000000
vn 1.000000 0.000000 0.000000
vn 1.000000 0.000000 0.000000
vn 0.000000 0.000000 1.000000
vn 0.000000 0.000000 1.000000
vn 0.000000 0.000000 1.000000
vn 0.000000 0.000000 1.000000
vn 0.000000 0.000000 -1.000000
vn 0.000000 0.000000 -1.000000
vn 0.000000 0.000000 -1.000000
vn 0.000000 0.000000 -1.000000
vn -1.000000 0.000000 0.000000
vn -1.000000 0.000000 0.000000
vn -1.000000 0.000000 0.000000
vn -1.000000 0.000000 0.000000
vn 1.000000 0.000000 0.000000
vn 1.000000 0.000000 0.000000
vn 1.000000 0.000000 0.000000
vn 1.000000 0.000000 0.000000
vn 0.000000 0.000000 1.000000
vn 0.000000 0.000000 1.000000
vn 0.000000 0.000000 1.000000
vn 0.000000 0.000000 1.000000
vn 0.238371 -0.971169 0.003063
vn 0.238238 -0.971202 0.003065
vn 0.040576 0.007819 -0.999146
vn 0.040576 0.007819 -0.999146
vn -0.238238 0.971202 -0.003065
vn -0.238371 0.971169 -0.003066
vn 0.009008 0.004350 0.999950
vn 0.009008 0.004350 0.999950
s 1
g pCube5
usemtl initialShadingGroup
f 56/107/1 49/99/2 2/2/3 3/3/4
s off
f 5/5/5 6/6/6 1/1/7 4/4/8
s 2
f 49/100/9 50/101/10 7/8/11 2/9/12
s 3
f 2/2/13 7/11/14 8/12/15 3/3/16
s 4
f 55/106/17 56/107/18 3/3/19 8/13/20
s 5
f 6/6/21 5/5/22 9/15/23 15/23/24
s 2
f 50/101/10 51/102/25 11/17/26 7/8/11
s 3
f 8/12/15 7/11/14 11/18/27 12/19/28
s 4
f 54/105/29 55/106/17 8/13/20 12/20/30
f 14/22/31 9/15/32 5/5/33 13/30/34
s 2
f 16/25/35 10/24/36 6/6/37 15/23/38
f 51/102/25 52/103/39 18/27/40 11/17/26
s 3
f 12/19/28 11/18/27 18/28/41 19/29/42
s 4
f 53/104/43 54/105/29 12/20/30 19/31/44
f 9/15/32 14/22/31 21/33/45 22/34/46 23/35/47 24/36/48 25/37/49 26/38/50 27/39/51 28/40/52 29/41/53 30/42/54 31/43/55 32/44/56
f 9/15/32 32/44/56 33/45/57 30/42/54 29/41/53 26/38/50 25/37/49 22/34/46 21/33/45 34/46/58
s 5
f 15/23/24 9/15/23 34/46/59 35/47/60
s 7
f 10/24/61 16/25/62 14/22/63 13/30/64
s off
f 17/48/65 10/24/66 13/30/67 20/49/68
s 8
f 52/103/69 53/104/70 19/31/71 18/27/72
s 7
f 14/22/63 16/25/62 36/50/73 21/33/74
s off
f 21/33/75 36/50/76 35/47/77 34/46/78
s 2
f 15/23/38 35/47/79 36/50/80 37/51/81 38/52/82 39/53/83 40/54/84 41/55/85 42/56/86 43/57/87
f 16/25/35 15/23/38 43/57/87 44/58/88 41/55/85 40/54/84 45/59/89 46/60/90 39/53/83 38/52/82 47/61/91 48/62/92 37/51/81 36/50/80
s off
f 43/63/93 42/64/94 33/65/95 32/66/96
f 44/67/97 43/63/98 32/66/99 31/68/100
f 42/64/101 41/69/102 30/70/103 33/65/104
f 31/71/105 30/72/106 41/73/107 44/74/108
f 45/75/109 40/76/110 29/77/111 28/78/112
f 46/79/113 45/75/114 28/78/115 27/80/116
f 40/76/117 39/81/118 26/82/119 29/77/120
f 27/83/121 26/84/122 39/85/123 46/86/124
f 47/87/125 38/88/126 25/89/127 24/90/128
f 48/91/129 47/87/130 24/90/131 23/92/132
f 38/88/133 37/93/134 22/94/135 25/89/136
f 23/95/137 22/96/138 37/97/139 48/98/140
s 2
f 6/7/37 50/101/10 49/100/9 1/10/141
f 10/16/36 51/102/25 50/101/10 6/7/37
f 17/26/142 52/103/39 51/102/25 10/16/36
s 8
f 20/32/143 53/104/70 52/103/69 17/26/144
s 4
f 13/21/34 54/105/29 53/104/43 20/32/145
f 5/14/33 55/106/17 54/105/29 13/21/34
f 4/4/146 56/107/18 55/106/17 5/14/33
s 1
f 1/1/147 49/99/2 56/107/1 4/4/148
