# This file uses centimeters as units for non-parametric coordinates.

mtllib Stove Nob.mtl
g default
v 4.955416 8.906318 -0.023057
v 5.160086 9.014284 -0.044586
v 4.955416 9.662055 -0.023057
v 5.160086 9.554089 -0.044586
v 4.955416 9.662055 -0.173759
v 5.160086 9.554089 -0.152229
v 4.955416 8.906318 -0.173759
v 5.160086 9.014284 -0.152229
v 5.062475 8.906318 -0.023057
v 5.062475 8.906318 -0.173759
v 5.062475 9.662055 -0.173759
v 5.062475 9.662055 -0.023057
v 4.742807 8.870684 -0.311631
v 4.741996 9.033879 -0.490352
v 4.743141 9.264565 -0.563545
v 4.745934 9.500930 -0.511597
v 4.749627 9.679640 -0.348429
v 4.753232 9.752809 -0.117761
v 4.755780 9.700832 0.118600
v 4.756590 9.537636 0.297321
v 4.755446 9.306951 0.370514
v 4.752653 9.070587 0.318567
v 4.748959 8.891876 0.155398
v 4.745355 8.818707 -0.075270
v 4.947663 8.925819 -0.284708
v 4.946964 9.066614 -0.438898
v 4.947952 9.265636 -0.502044
v 4.950362 9.469558 -0.457228
v 4.953548 9.623740 -0.316456
v 4.956657 9.686864 -0.117448
v 4.958856 9.642021 0.086470
v 4.959555 9.501226 0.240661
v 4.958568 9.302204 0.303807
v 4.956158 9.098282 0.258990
v 4.952972 8.944102 0.118218
v 4.949862 8.880977 -0.080790
v 4.953260 9.283920 -0.099119
v 4.909756 8.869181 -0.313762
v 4.908946 9.032374 -0.492483
v 4.910090 9.263061 -0.565676
v 4.912883 9.499426 -0.513728
v 4.916577 9.678136 -0.350560
v 4.920181 9.751305 -0.119892
v 4.922729 9.699327 0.116469
v 4.923540 9.536132 0.295190
v 4.922395 9.305446 0.368383
v 4.919602 9.069082 0.316435
v 4.915909 8.890372 0.153267
v 4.912305 8.817203 -0.077401
vt 0.420396 0.903001
vt 0.420396 0.095248
vt 0.443394 0.210646
vt 0.443394 0.787602
vt 0.581371 0.903001
vt 0.558373 0.787602
vt 0.581371 0.095248
vt 0.558373 0.210646
vt 0.581371 0.095248
vt 0.420396 0.095248
vt 0.581371 0.903001
vt 0.420396 0.903001
vt 0.730916 0.055555
vt 0.921819 0.229981
vt 0.864581 0.266578
vt 0.699882 0.116092
vt 1.000000 0.476544
vt 0.932032 0.479298
vt 0.944512 0.729177
vt 0.884160 0.697254
vt 0.770222 0.920188
vt 0.733793 0.862047
vt 0.523832 0.998392
vt 0.521222 0.929517
vt 0.271360 0.942838
vt 0.303404 0.881587
vt 0.080458 0.768410
vt 0.138704 0.731102
vt 0.002276 0.521847
vt 0.071254 0.518382
vt 0.057765 0.269216
vt 0.119126 0.300425
vt 0.232054 0.078205
vt 0.269493 0.135633
vt 0.478445 0.000000
vt 0.482064 0.068163
vt 0.501643 0.498840
vt 0.728640 0.057162
vt 0.919542 0.231589
vt 0.997724 0.478153
vt 0.942235 0.730786
vt 0.767946 0.921795
vt 0.521556 1.000000
vt 0.269084 0.944447
vt 0.078182 0.770018
vt -0.000000 0.523456
vt 0.055488 0.270823
vt 0.229778 0.079813
vt 0.476168 0.001609
vn 0.059649 0.000000 0.998219
vn 0.059650 0.000000 0.998219
vn 0.215387 0.000000 0.976529
vn 0.215387 0.000000 0.976529
vn 0.416901 0.908952 0.000000
vn 0.416901 0.908952 0.000000
vn 0.741784 0.670639 0.000000
vn 0.741784 0.670639 0.000000
vn 0.059650 0.000000 -0.998219
vn 0.059650 0.000000 -0.998219
vn 0.215388 0.000000 -0.976529
vn 0.215388 0.000000 -0.976529
vn 0.416897 -0.908954 0.000000
vn 0.416897 -0.908954 0.000000
vn 0.741779 -0.670644 0.000000
vn 0.741779 -0.670644 0.000000
vn 1.000000 0.000000 0.000000
vn 1.000000 0.000000 0.000000
vn 1.000000 0.000000 0.000000
vn 1.000000 0.000000 0.000000
vn 0.000000 -1.000000 0.000000
vn 0.000000 -1.000000 0.000000
vn 0.000000 0.000000 -1.000000
vn 0.000000 0.000000 -1.000000
vn 0.000000 1.000000 0.000000
vn 0.000000 1.000000 0.000000
vn 0.000000 0.000000 1.000000
vn 0.000000 0.000000 1.000000
vn 0.229109 -0.718293 -0.656935
vn 0.229108 -0.718293 -0.656935
vn 0.850610 -0.386348 -0.356647
vn 0.850610 -0.386348 -0.356647
vn 0.229467 -0.295391 -0.927410
vn 0.229469 -0.295391 -0.927410
vn 0.850803 -0.162752 -0.499645
vn 0.850803 -0.162752 -0.499645
vn 0.233693 0.206075 -0.950221
vn 0.233694 0.206075 -0.950221
vn 0.853035 0.102380 -0.511712
vn 0.853035 0.102380 -0.511712
vn 0.240658 0.651730 -0.719258
vn 0.240657 0.651730 -0.719258
vn 0.856715 0.338012 -0.389599
vn 0.856715 0.338012 -0.389599
vn 0.248491 0.922173 -0.296393
vn 0.248492 0.922173 -0.296393
vn 0.860861 0.480994 -0.166021
vn 0.860861 0.480994 -0.166021
vn 0.255100 0.944924 0.205043
vn 0.255101 0.944924 0.205043
vn 0.864354 0.493023 0.099099
vn 0.864354 0.493023 0.099099
vn 0.258704 0.713897 0.650710
vn 0.258705 0.713897 0.650710
vn 0.866260 0.370877 0.334729
vn 0.866260 0.370877 0.334729
vn 0.258349 0.290995 0.921183
vn 0.258348 0.290995 0.921183
vn 0.866067 0.147281 0.477740
vn 0.866067 0.147281 0.477740
vn 0.254122 -0.210471 0.943993
vn 0.254124 -0.210471 0.943993
vn 0.863833 -0.117854 0.489800
vn 0.863833 -0.117854 0.489800
vn 0.247154 -0.656124 0.713033
vn 0.247154 -0.656124 0.713033
vn 0.860151 -0.353485 0.367681
vn 0.860151 -0.353485 0.367681
vn 0.239326 -0.926566 0.290170
vn 0.239325 -0.926566 0.290170
vn 0.856014 -0.496459 0.144110
vn 0.856014 -0.496459 0.144110
vn 0.232718 -0.949320 -0.211269
vn 0.232719 -0.949319 -0.211269
vn 0.852519 -0.508495 -0.121014
vn 0.852519 -0.508495 -0.121014
vn 0.999878 -0.009010 -0.012763
vn 0.999878 -0.009010 -0.012763
vn 0.999878 -0.009011 -0.012763
vn 0.999878 -0.009011 -0.012763
vn 0.999878 -0.009011 -0.012763
vn 0.999878 -0.009010 -0.012763
vn 0.999878 -0.009011 -0.012763
vn 0.999878 -0.009010 -0.012763
vn 0.999878 -0.009011 -0.012763
vn 0.999878 -0.009011 -0.012763
vn 0.999878 -0.009011 -0.012763
vn 0.999878 -0.009012 -0.012763
vn 0.999878 -0.009010 -0.012763
vn -0.015259 -0.738402 -0.674188
vn -0.015259 -0.738402 -0.674188
vn -0.014890 -0.302326 -0.953088
vn -0.014890 -0.302326 -0.953088
vn -0.010531 0.214761 -0.976610
vn -0.010531 0.214761 -0.976610
vn -0.003349 0.674297 -0.738453
vn -0.003349 0.674297 -0.738453
vn 0.004725 0.953165 -0.302415
vn 0.004725 0.953165 -0.302415
vn 0.011539 0.976625 0.214640
vn 0.011539 0.976625 0.214640
vn 0.015259 0.738401 0.674190
vn 0.015259 0.738401 0.674190
vn 0.014893 0.302327 0.953088
vn 0.014893 0.302327 0.953088
vn 0.010534 -0.214762 0.976610
vn 0.010534 -0.214762 0.976610
vn 0.003352 -0.674294 0.738455
vn 0.003352 -0.674294 0.738455
vn -0.004727 -0.953164 0.302418
vn -0.004727 -0.953164 0.302418
vn -0.011537 -0.976625 -0.214640
vn -0.011537 -0.976625 -0.214640
s 1
g pCube9
usemtl initialShadingGroup
f 12/1/1 9/2/2 2/3/3 4/4/4
s 2
f 11/5/5 12/1/6 4/4/7 6/6/8
s 3
f 10/7/9 11/5/10 6/6/11 8/8/12
s 4
f 9/2/13 10/7/14 8/8/15 2/3/16
s off
f 2/3/17 8/8/18 6/6/19 4/4/20
s 4
f 7/9/21 10/7/14 9/2/13 1/10/22
s 3
f 5/11/23 11/5/10 10/7/9 7/9/24
s 2
f 3/12/25 12/1/6 11/5/5 5/11/26
s 1
f 1/10/27 9/2/2 12/1/1 3/12/28
s 5
f 38/13/29 39/14/30 26/15/31 25/16/32
s 6
f 39/14/33 40/17/34 27/18/35 26/15/36
s 7
f 40/17/37 41/19/38 28/20/39 27/18/40
s 8
f 41/19/41 42/21/42 29/22/43 28/20/44
s 9
f 42/21/45 43/23/46 30/24/47 29/22/48
s 10
f 43/23/49 44/25/50 31/26/51 30/24/52
s 11
f 44/25/53 45/27/54 32/28/55 31/26/56
s 12
f 45/27/57 46/29/58 33/30/59 32/28/60
s 13
f 46/29/61 47/31/62 34/32/63 33/30/64
s 14
f 47/31/65 48/33/66 35/34/67 34/32/68
s 15
f 48/33/69 49/35/70 36/36/71 35/34/72
s 16
f 49/35/73 38/13/74 25/16/75 36/36/76
s 17
f 25/16/77 26/15/78 37/37/79
f 26/15/78 27/18/80 37/37/79
f 27/18/80 28/20/81 37/37/79
f 28/20/81 29/22/82 37/37/79
f 29/22/82 30/24/83 37/37/79
f 30/24/83 31/26/84 37/37/79
f 31/26/84 32/28/85 37/37/79
f 32/28/85 33/30/86 37/37/79
f 33/30/86 34/32/87 37/37/79
f 34/32/87 35/34/88 37/37/79
f 35/34/88 36/36/89 37/37/79
f 36/36/89 25/16/77 37/37/79
s 5
f 13/38/90 14/39/91 39/14/30 38/13/29
s 6
f 14/39/92 15/40/93 40/17/34 39/14/33
s 7
f 15/40/94 16/41/95 41/19/38 40/17/37
s 8
f 16/41/96 17/42/97 42/21/42 41/19/41
s 9
f 17/42/98 18/43/99 43/23/46 42/21/45
s 10
f 18/43/100 19/44/101 44/25/50 43/23/49
s 11
f 19/44/102 20/45/103 45/27/54 44/25/53
s 12
f 20/45/104 21/46/105 46/29/58 45/27/57
s 13
f 21/46/106 22/47/107 47/31/62 46/29/61
s 14
f 22/47/108 23/48/109 48/33/66 47/31/65
s 15
f 23/48/110 24/49/111 49/35/70 48/33/69
s 16
f 24/49/112 13/38/113 38/13/74 49/35/73
