# This file uses centimeters as units for non-parametric coordinates.

mtllib Stove Door.mtl
g default
v 4.782388 2.245921 4.987214
v 5.509200 2.245921 4.987214
v 4.782388 8.526440 4.987214
v 5.509200 8.526440 4.987214
v 4.782388 8.526440 -4.994575
v 5.509200 8.526440 -4.994575
v 4.782388 2.254159 -4.994575
v 5.509200 2.254159 -4.994575
v 4.782388 8.526440 -4.167314
v 5.509200 8.526440 -4.167314
v 5.509200 2.253476 -4.167312
v 4.782388 2.253476 -4.167312
v 4.782388 8.526440 4.252884
v 5.509200 8.526440 4.252884
v 5.509200 2.246527 4.252883
v 4.782388 2.246527 4.252883
v 4.782388 7.339195 4.987214
v 5.509200 7.339195 4.987214
v 5.509200 7.339310 4.252884
v 5.509200 7.340623 -4.167314
v 5.509200 7.340753 -4.994575
v 4.782388 7.340753 -4.994575
v 4.782388 7.340623 -4.167314
v 4.782388 7.339310 4.252884
v 4.782388 2.999624 4.987214
v 5.509200 2.999624 4.987214
v 5.509200 3.000157 4.252884
v 5.509200 3.006273 -4.167312
v 5.509200 3.006873 -4.994575
v 4.782388 3.006873 -4.994575
v 4.782388 3.006273 -4.167312
v 4.782388 3.000157 4.252884
v 5.363324 7.071819 3.733657
v 5.363324 7.072970 -3.648087
v 5.363324 3.267810 3.733657
v 5.363324 3.273170 -3.648085
v 4.903415 7.108570 -3.706733
v 4.903415 7.107412 3.792303
v 4.903415 3.289440 -3.706731
v 4.903415 3.284052 3.792303
v 6.330722 7.736532 -0.000000
v 6.213493 7.736532 -2.047367
v 5.893222 7.736532 -3.546144
v 5.455722 7.736532 -4.094734
v 5.455722 7.736532 4.094734
v 5.893222 7.736532 3.546143
v 6.213493 7.736532 2.047366
v 6.330722 8.303841 0.000000
v 6.213493 8.303841 -2.047367
v 5.893222 8.303841 -3.546144
v 5.455722 8.303841 -4.094734
v 5.455722 8.303841 4.094734
v 5.893222 8.303841 3.546143
v 6.213493 8.303841 2.047366
v 6.455722 8.303841 0.000000
v 6.321746 8.303841 -2.339848
v 5.955722 8.303841 -4.052736
v 5.455722 8.303841 -4.679696
v 5.455722 8.303841 4.679696
v 5.955722 8.303841 4.052736
v 6.321746 8.303841 2.339848
v 6.455722 7.736532 -0.000000
v 6.321746 7.736532 -2.339848
v 5.955722 7.736532 -4.052736
v 5.455722 7.736532 -4.679696
v 5.455722 7.736532 4.679696
v 5.955722 7.736532 4.052736
v 6.321746 7.736532 2.339848
vt 0.000000 0.810964
vt 0.000000 0.810964
vt 0.000000 1.000000
vt 0.000000 1.000000
vt 0.712384 1.000000
vt 0.712384 1.000000
vt 0.776759 1.000000
vt 0.776759 1.000000
vt 0.776759 0.811212
vt 0.776759 0.811212
vt 0.776759 0.001312
vt 0.776759 0.001312
vt 0.712383 0.001203
vt 0.712383 0.001203
vt 0.712384 0.811191
vt 0.712384 0.811191
vt 0.057144 1.000000
vt 0.057144 1.000000
vt 0.057144 0.810982
vt 0.057144 0.000096
vt 0.057144 0.000096
vt 0.057144 0.810982
vt 0.000000 0.000000
vt 0.000000 0.000000
vt 0.000000 0.120006
vt 0.000000 0.120006
vt 0.057144 0.120091
vt 0.671979 0.768575
vt 0.097549 0.768392
vt 0.097549 0.162708
vt 0.671979 0.163561
vt 0.712384 0.121065
vt 0.776759 0.121161
vt 0.776759 0.121161
vt 0.712384 0.121065
vt 0.092985 0.774059
vt 0.676542 0.774243
vt 0.676542 0.166152
vt 0.092985 0.165294
vt 0.057144 0.120091
vt 1.000000 0.000000
vt 0.935270 0.000000
vt 0.870540 0.000000
vt 0.805810 0.000000
vt 0.998272 0.000000
vt 0.933542 0.000000
vt 0.868812 0.000000
vt 0.804083 0.000000
vt 1.000000 0.250000
vt 0.935270 0.250000
vt 0.870540 0.250000
vt 0.805810 0.250000
vt 0.998272 0.250000
vt 0.933542 0.250000
vt 0.868812 0.250000
vt 0.804083 0.250000
vt 1.000000 0.500000
vt 0.935270 0.500000
vt 0.868812 1.000000
vt 0.804083 1.000000
vt 0.804083 0.750000
vt 0.868812 0.750000
vt 0.933542 1.000000
vt 0.933542 0.750000
vt 0.998272 1.000000
vt 0.998272 0.750000
vt 0.870540 1.000000
vt 0.805810 1.000000
vt 0.805810 0.750000
vt 0.870540 0.750000
vt 0.935270 1.000000
vt 0.935270 0.750000
vt 1.000000 1.000000
vt 1.000000 0.750000
vt 0.804083 0.500000
vt 0.868812 0.500000
vt 0.933542 0.500000
vt 0.998272 0.500000
vt 0.805810 0.500000
vt 0.870540 0.500000
vn 0.000000 0.000000 1.000000
vn 0.000000 0.000000 1.000000
vn 0.000000 0.000000 1.000000
vn 0.000000 0.000000 1.000000
vn 0.000000 1.000000 0.000000
vn 0.000000 1.000000 0.000000
vn 0.000000 1.000000 0.000000
vn 0.000000 1.000000 0.000000
vn 0.000000 0.000000 -1.000000
vn 0.000000 0.000000 -1.000000
vn 0.000000 0.000000 -1.000000
vn 0.000000 0.000000 -1.000000
vn 0.000000 -1.000000 -0.000825
vn 0.000000 -1.000000 -0.000825
vn 0.000000 -1.000000 -0.000825
vn 0.000000 -1.000000 -0.000825
vn 1.000000 0.000000 0.000000
vn 1.000000 -0.000000 0.000000
vn 1.000000 -0.000000 0.000000
vn 1.000000 0.000000 0.000000
vn -1.000000 0.000000 0.000000
vn -1.000000 0.000000 0.000000
vn -1.000000 0.000000 0.000000
vn -1.000000 0.000000 0.000000
vn 0.000000 1.000000 0.000000
vn 0.000000 1.000000 0.000000
vn 1.000000 0.000000 0.000000
vn 1.000000 0.000000 0.000000
vn 0.000000 -1.000000 -0.000825
vn 0.000000 -1.000000 -0.000825
vn -1.000000 0.000000 0.000000
vn -1.000000 0.000000 0.000000
vn 0.000000 1.000000 0.000000
vn 0.000000 1.000000 0.000000
vn 1.000000 0.000000 0.000000
vn 1.000000 0.000000 0.000000
vn 0.000000 -1.000000 -0.000825
vn 0.000000 -1.000000 -0.000825
vn -1.000000 0.000000 0.000000
vn -1.000000 0.000000 0.000000
vn 0.000000 0.000000 1.000000
vn 0.000000 0.000000 1.000000
vn 1.000000 0.000000 0.000000
vn 1.000000 -0.000000 0.000000
vn 1.000000 0.000000 0.000000
vn 1.000000 0.000000 0.000000
vn 1.000000 0.000000 0.000000
vn 1.000000 0.000000 0.000000
vn 1.000000 -0.000000 0.000000
vn 1.000000 -0.000000 0.000000
vn 0.000000 0.000000 -1.000000
vn 0.000000 0.000000 -1.000000
vn -1.000000 0.000000 0.000000
vn -1.000000 0.000000 0.000000
vn -1.000000 0.000000 0.000000
vn -1.000000 0.000000 0.000000
vn -1.000000 0.000000 0.000000
vn -1.000000 0.000000 0.000000
vn -1.000000 0.000000 0.000000
vn -1.000000 0.000000 0.000000
vn 0.000000 0.000000 1.000000
vn 0.000000 0.000000 1.000000
vn 1.000000 0.000000 0.000000
vn 1.000000 -0.000000 0.000000
vn 1.000000 -0.000000 0.000000
vn 1.000000 0.000000 0.000000
vn 0.000000 0.000000 -1.000000
vn 0.000000 0.000000 -1.000000
vn -1.000000 0.000000 0.000000
vn -1.000000 0.000000 0.000000
vn -1.000000 0.000000 0.000000
vn -1.000000 0.000000 0.000000
vn 0.877995 -0.478671 -0.000075
vn 0.877995 -0.478671 -0.000075
vn 0.877995 -0.478671 -0.000075
vn 0.877995 -0.478671 -0.000075
vn 0.962727 0.000000 -0.270477
vn 0.962727 0.000000 -0.270477
vn 0.962727 0.000000 -0.270477
vn 0.962727 0.000000 -0.270477
vn 0.877772 0.479078 0.000348
vn 0.877772 0.479078 0.000348
vn 0.877772 0.479078 0.000348
vn 0.877772 0.479078 0.000348
vn 0.962726 0.000000 0.270477
vn 0.962726 0.000000 0.270477
vn 0.962726 0.000000 0.270477
vn 0.962726 0.000000 0.270477
vn -0.886591 -0.462554 -0.000072
vn -0.886591 -0.462554 -0.000072
vn -0.886591 -0.462554 -0.000072
vn -0.886591 -0.462554 -0.000072
vn -0.967167 0.000000 0.254143
vn -0.967167 0.000000 0.254143
vn -0.967167 0.000000 0.254143
vn -0.967167 0.000000 0.254143
vn -0.919716 0.392585 0.000284
vn -0.919716 0.392585 0.000284
vn -0.919716 0.392585 0.000284
vn -0.919716 0.392585 0.000284
vn -0.967167 0.000000 -0.254143
vn -0.967167 0.000000 -0.254143
vn -0.967167 0.000000 -0.254143
vn -0.967167 0.000000 -0.254143
vn -0.998365 0.000000 0.057165
vn -0.998365 0.000000 0.057165
vn -0.998365 0.000000 0.057165
vn -0.998365 0.000000 0.057165
vn -0.977922 0.000000 0.208970
vn -0.977922 0.000000 0.208970
vn -0.977922 0.000000 0.208970
vn -0.977922 0.000000 0.208970
vn -0.781821 0.000000 0.623502
vn -0.781821 0.000000 0.623502
vn -0.781821 0.000000 0.623502
vn -0.781821 0.000000 0.623502
vn -0.781822 0.000000 -0.623502
vn -0.781822 0.000000 -0.623502
vn -0.781822 0.000000 -0.623502
vn -0.781822 0.000000 -0.623502
vn -0.977922 0.000000 -0.208970
vn -0.977922 0.000000 -0.208970
vn -0.977922 0.000000 -0.208970
vn -0.977922 0.000000 -0.208970
vn -0.998365 0.000000 -0.057165
vn -0.998365 0.000000 -0.057165
vn -0.998365 0.000000 -0.057165
vn -0.998365 0.000000 -0.057165
vn 0.000000 1.000000 0.000000
vn 0.000000 1.000000 0.000000
vn 0.000000 1.000000 0.000000
vn 0.000000 1.000000 0.000000
vn 0.000000 1.000000 0.000000
vn 0.000000 1.000000 0.000000
vn 0.000000 1.000000 0.000000
vn 0.000000 1.000000 0.000000
vn 0.000000 1.000000 0.000000
vn 0.000000 1.000000 0.000000
vn 0.000000 1.000000 0.000000
vn 0.000000 1.000000 0.000000
vn 0.000000 1.000000 0.000000
vn 0.000000 1.000000 0.000000
vn 0.998365 0.000000 -0.057165
vn 0.998365 0.000000 -0.057165
vn 0.998365 0.000000 -0.057165
vn 0.998365 0.000000 -0.057165
vn 0.977922 0.000000 -0.208970
vn 0.977922 0.000000 -0.208970
vn 0.977922 0.000000 -0.208970
vn 0.977922 0.000000 -0.208970
vn 0.781822 0.000000 -0.623502
vn 0.781822 0.000000 -0.623502
vn 0.781822 0.000000 -0.623502
vn 0.781822 0.000000 -0.623502
vn 0.781822 0.000000 0.623502
vn 0.781822 0.000000 0.623502
vn 0.781822 0.000000 0.623502
vn 0.781822 0.000000 0.623502
vn 0.977922 0.000000 0.208970
vn 0.977922 0.000000 0.208970
vn 0.977922 0.000000 0.208970
vn 0.977922 0.000000 0.208970
vn 0.998365 -0.000000 0.057165
vn 0.998365 -0.000000 0.057165
vn 0.998365 -0.000000 0.057165
vn 0.998365 -0.000000 0.057165
vn 0.000000 -1.000000 0.000000
vn 0.000000 -1.000000 0.000000
vn 0.000000 -1.000000 0.000000
vn 0.000000 -1.000000 0.000000
vn 0.000000 -1.000000 0.000000
vn 0.000000 -1.000000 0.000000
vn 0.000000 -1.000000 0.000000
vn 0.000000 -1.000000 0.000000
vn 0.000000 -1.000000 0.000000
vn 0.000000 -1.000000 0.000000
vn 0.000000 -1.000000 0.000000
vn 0.000000 -1.000000 0.000000
vn 0.000000 -1.000000 0.000000
vn 0.000000 -1.000000 0.000000
s 1
g pCube11
usemtl initialShadingGroup
f 17/1/1 18/2/2 4/3/3 3/4/4
s 2
f 9/5/5 10/6/6 6/7/7 5/8/8
s 3
f 5/8/9 6/7/10 21/9/11 22/10/12
s 4
f 7/11/13 8/12/14 11/13/15 12/14/16
s 5
f 10/6/17 20/15/18 21/9/19 6/7/20
s 6
f 22/10/21 23/16/22 9/5/23 5/8/24
s 2
f 13/17/25 14/18/26 10/6/6 9/5/5
s 5
f 14/18/27 19/19/28 20/15/18 10/6/17
s 4
f 12/14/16 11/13/15 15/20/29 16/21/30
s 6
f 9/5/23 23/16/22 24/22/31 13/17/32
s 2
f 3/4/33 4/3/34 14/18/26 13/17/25
s 5
f 18/2/35 19/19/28 14/18/27 4/3/36
s 4
f 16/21/30 15/20/29 2/23/37 1/24/38
s 6
f 13/17/32 24/22/31 17/1/39 3/4/40
s 1
f 25/25/41 26/26/42 18/2/2 17/1/1
s 5
f 26/26/43 27/27/44 19/19/28 18/2/35
s off
f 34/28/45 33/29/46 35/30/47 36/31/48
s 5
f 21/9/19 20/15/18 28/32/49 29/33/50
s 3
f 22/10/12 21/9/11 29/33/51 30/34/52
s 6
f 30/34/53 31/35/54 23/16/22 22/10/21
s off
f 38/36/55 37/37/56 39/38/57 40/39/58
s 6
f 17/1/39 24/22/31 32/40/59 25/25/60
s 1
f 1/24/61 2/23/62 26/26/42 25/25/41
s 5
f 2/23/63 15/20/64 27/27/44 26/26/43
f 28/32/49 27/27/44 15/20/64 11/13/65
f 29/33/50 28/32/49 11/13/65 8/12/66
s 3
f 30/34/52 29/33/51 8/12/67 7/11/68
s 6
f 7/11/69 12/14/70 31/35/54 30/34/53
f 32/40/59 31/35/54 12/14/70 16/21/71
f 25/25/60 32/40/59 16/21/71 1/24/72
s off
f 20/15/73 19/19/74 33/29/75 34/28/76
f 19/19/77 27/27/78 35/30/79 33/29/80
f 27/27/81 28/32/82 36/31/83 35/30/84
f 28/32/85 20/15/86 34/28/87 36/31/88
f 24/22/89 23/16/90 37/37/91 38/36/92
f 23/16/93 31/35/94 39/38/95 37/37/96
f 31/35/97 32/40/98 40/39/99 39/38/100
f 32/40/101 24/22/102 38/36/103 40/39/104
f 42/59/105 41/60/106 48/61/107 49/62/108
f 43/63/109 42/59/110 49/62/111 50/64/112
f 44/65/113 43/63/114 50/64/115 51/66/116
f 46/67/117 45/68/118 52/69/119 53/70/120
f 47/71/121 46/67/122 53/70/123 54/72/124
f 41/73/125 47/71/126 54/72/127 48/74/128
s 7
f 49/62/129 48/61/130 55/75/131 56/76/132
f 50/64/133 49/62/129 56/76/132 57/77/134
f 51/66/135 50/64/133 57/77/134 58/78/136
f 53/70/137 52/69/138 59/79/139 60/80/140
f 54/72/141 53/70/137 60/80/140 61/58/142
f 48/74/130 54/72/141 61/58/142 55/57/131
s off
f 56/76/143 55/75/144 62/56/145 63/55/146
f 57/77/147 56/76/148 63/55/149 64/54/150
f 58/78/151 57/77/152 64/54/153 65/53/154
f 60/80/155 59/79/156 66/52/157 67/51/158
f 61/58/159 60/80/160 67/51/161 68/50/162
f 55/57/163 61/58/164 68/50/165 62/49/166
s 9
f 63/55/167 62/56/168 41/48/169 42/47/170
f 64/54/171 63/55/167 42/47/170 43/46/172
f 65/53/173 64/54/171 43/46/172 44/45/174
f 67/51/175 66/52/176 45/44/177 46/43/178
f 68/50/179 67/51/175 46/43/178 47/42/180
f 62/49/168 68/50/179 47/42/180 41/41/169
